<?xml version="1.0" encoding="UTF-8"?>
<svg id="Layer_1" data-name="Layer 1" xmlns="http://www.w3.org/2000/svg" viewBox="0 0 32 32">
  <defs>
    <style>
      .cls-1 {
        fill: #0f174b;
      }
    </style>
  </defs>
  <path class="cls-1" d="M25.141851310690072,18.285969625520011c-3.787023589579803,0-6.857011210486235,3.069987620903703-6.857011210486235,6.857011210484416,0,3.787023589582532,3.069987620906431,6.857011210486235,6.857011210486235,6.857011210486235s6.857011210485325-3.069987620903703,6.857011210485325-6.857011210486235c-.004093636529433-3.785325536939126-3.071685673545289-6.852917573954983-6.857011210485325-6.857011210484416ZM29.782334902942239,24.641277124104818l-4.57134080698961,4.571340806991429c-.669401123582247.66951447241081-1.754805525730262.669606023386223-2.424319998140163.000204899803066l-.000204899805794-.000204899803066-2.285670403495715-2.285670403496624c-.669514472409901-.6694011235777-.669606023388042-1.754805525730262-.000204899804885-2.424319998141073l.000204899804885-.000204899803066c.678730604066004-.646881763099373,1.745794293880863-.646881763099373,2.424524897945957,0l1.073692416484846,1.073121312774674,3.359364999767422-3.35879171626766c.678497367051023-.647463765739303,1.746027530892206-.647463765739303,2.424524897945048,0,.669514472409901.6694011235777.669606023388042,1.754805525730262.000204899804885,2.424319998139254l-.000204899804885.000204899803066h-.000571103711991Z"/>
  <path class="cls-1" d="M19.999092902826305,14.286046419405466c-.002803203716212.376477234263803-.032400326612333.752276555345816-.088569030604958,1.124550073936916.779504251778235-.10655988741928,1.325032544312307-.824856861810986,1.218473746785094-1.60436111359013-.042076392934177-.30779874324071-.183618562487027-.593406183670595-.403059714288247-.813307270136647-.19679536377771-.201958184930845-.45024334385198-.339441594514938-.726845001891888-.394277359881016v1.687395669670877Z"/>
  <path class="cls-1" d="M18.856257701078903,14.286046419405466v-3.485647583309401c.00435085117897-.593323351833533-.449739813482665-1.089534005133828-1.041122066632852-1.137691998666924-4.977046780461933-.342850778501088-7.900990975459536-2.177100754157436-9.043826177207848-3.066226946557435-.757322757993279,1.132043085424812-1.794753358456546,2.048801324397573-3.011371018178579,2.661092076798013-.379564354998365.194604679692929-.618123857487262.585436889128687-.617703158952281,1.011980518833298v4.016493932902449c0,3.787023589578894,3.069988710796679,6.857011210484416,6.857011210484416,6.857011210484416,3.787022499689556,0,6.857011210487144-3.069987620905522,6.857011210487144-6.857011210484416Z"/>
  <path class="cls-1" d="M3.99940007836085,11.455243354383128v-1.185690867880112c-.002504573149963-.85577711429687.475844375605448-1.640437647869476,1.237690732750707-2.030246448171965,1.224181514226075-.608529533110413,2.229271187223276-1.5820728103281,2.876516429495496-2.786232997863408.14477479094603-.280417916907027.489462038444799-.390378269177745.769880500300133-.245603478233534.053414545441228.027577551947616.102142552792429.063410495236894.14438787907784.106177335122993.026857132950681.026856588005103,2.851944801283935,2.795946665482916,8.863829327762687,3.206795842039355,1.191599175553165.089886710731662,2.111372602350457,1.084978254148155,2.107387955078593,2.279956096699607v.657701126734537c.158727595750861.016219781375185.315475946576043.047990150078476.467991154621814.094855531006033.74202938531289-1.01696895717032,1.174766874550187-2.226492506088107,1.246261647999745-3.483360988675486C21.713345705447864,3.243401391506268,16.983150875167667.000606397557931,9.942142909469112.000606397557931,5.790051626093373-.051441626945234,2.372343041692147,3.253534122821293,2.285147275737472,7.405035774312637c0,1.235976331721758,0,2.628521181995893,1.202833788265707,4.158777229406041.166250579283769-.053812356236449.337644906596324-.090197330118826.511419014357671-.10856964933555Z"/>
  <path class="cls-1" d="M11.999246490591759,22.285892831636374c-.576584781592828-.001275174319744-1.151341813332692-.064881305273957-1.71425280261974-.189711062010247v.543989364214212c-.000970004397459.789040811847372-.341069894026987,1.539590977352418-.933696804505416,2.060531293285749.691276357551942.709877554210834,1.659350553807599,1.080478087687879,2.647949607125156,1.013696009753403.988462816746505.06700441601788,1.956452001380967-.303644072731913,2.647377413521099-1.01369382996927-.592232369361227-.521180092297072-.932078314021965-1.27163216747249-.933124610898631-2.060533473069881v-.543989364214212c-.562910989287957.12482975673629-1.137668021027821.188435887690503-1.714252802622468.189711062010247Z"/>
  <path class="cls-1" d="M28.166364253596839,23.024164267337255l-3.76335548231873,3.763355482315092c-.223138067429318.22307267387805-.584847257240654.22307267387805-.80798532467179,0l-1.477685078823015-1.477113975110115c-.219253690275764-.226983208453021-.581002116219679-.233250090786896-.80798532467179-.013994220722452-.226983208453021.219253690274854-.233250090785987.580999936433727-.013994220725181.8079853246727.00458190840618.004745392292534.009248828430827.009410132532139.013994220725181.013994220722452l2.285670403494805,2.285670403492986c.226218103862266.215506639589876.581767220811344.215506639589876.80798532467179,0l4.571340806992339-4.571340806985972c.223072673873503-.223138067431137.223072673873503-.584847257243382,0-.807985324674519-.226065518902033-.215665763904326-.581614635851111-.215918618983778-.807985324673609-.000571103710172Z"/>
  <path class="cls-1" d="M3.274842488520335,12.989500397450684c-.557101861838419.556428308222166-.557647353075481,1.459123118294883-.001218499905917,2.016224980134211.219971657013957.220237863275543.505977453180094.36243287848265.81434566529515.404871115757487-.056168703991716-.372273518591101-.085766371834325-.748072839673114-.088569575548718-1.124550073936916v-1.687395669670877c-.275427298785871.054180739925869-.52801426372389.190434750682471-.724557589840515.390849647716095Z"/>
  <path class="cls-1" d="M17.158575625239791,25.467546486699575l-1.454257837818659-.264567064175935c-.435990818587925.59541703548166-1.516541929077903,1.654254216104164-3.705071296829374,1.654254216104164-2.188529367748743,0-3.26908047823963-1.058837180622504-3.705072386718712-1.65711191445007l-3.82849781686491.696559066887858c-.564096247469934.104867284242573-1.104707762101498.310427564147176-1.59596948566741.606845649072056-.55270578011914.334089132051304-1.031104318984944.777871592694282-1.405687319948811,1.303975819670086-.401271745509803.613875456210735-.690326379931321,1.294140629026515-.853697871726581,2.009103622016482l-.261708548411661.897696562698911c-.114283547422929.388566322762927-.228566958607189.778651955781243-.342850506029208,1.170263438412803-.009318172847998.026809177677933-.004366927094452.056517469614846.013142605909707.078855907931938.016529038392036.023284465076358.04344679661699.036956077596187.071998576293481.036570255622792h3.908496340933198v-1.714252802623378c0-.315584935831794.255832120092236-.571417600869609.571417600873247-.571417600869609.315585480780101,0,.571417600873247.255832665037815.571417600873247.571417600869609v1.714252802623378h15.900266283983001c-2.313314438888483-1.383278583560241-3.77359829278339-3.839360231260798-3.883925938850552-6.532445559791086Z"/>
</svg>