<?xml version="1.0" encoding="UTF-8"?>
<svg id="Layer_1" data-name="Layer 1" xmlns="http://www.w3.org/2000/svg" viewBox="0 0 32 32">
  <defs>
    <style>
      .cls-1 {
        fill: #0f174b;
      }
    </style>
  </defs>
  <path class="cls-1" d="M4.20849254251516,17.489457644928734c1.360046064032758,0,2.466548495271127-1.106952379931499,2.466548495271127-2.46699893517507,0-1.360174269939307-1.106502431238368-2.467127632291522-2.466548004061224-2.467127632291522-1.360174761148301,0-2.466676946781263,1.106953362352215-2.466676946781263,2.467127632291522,0,1.360046555243571,1.106502185632962,2.46699893517507,2.46667645557136,2.46699893517507Z"/>
  <path class="cls-1" d="M7.708853176909543,24.151584662412461h-2.775140108741653c-.105846991698854,0-.171776264361142-.056980402247973-.201779393406468-.091618592289706-.030067477602643-.033930847116608-.078548466918619-.107714573502562-.064319576298658-.214784679008517l.425320388367254-3.206705745678846c.106748362716644-.79591404763687-.261334229172462-1.590283729889052-.937752022720815-2.023651126442019-.726636930738096-.464852016057193-1.653829895469244-.429504518248905-2.478330421461578.09239077498205-.355978677304847.223927086306503-.591752652373543.591945820847286-.646607710177705,1.008380213726923l-.711184803508331,5.333499259553719c-.111255402011921.829844894755297.140228155916702,1.6603971324339.687298471523718,2.274620325720207.548293429413206.624974805737111,1.334163698733391.983658578516952,2.156282100065255.983658578516952h2.217446632193059c.148211920769427,0,.26867389443396.120140230875222.26867389443396.267837363183389v2.621713498746431c0,.283288876398728.229335312416879.512690011005361.512302937238928.512690011005361h3.130732694699873c.282838927706507,0,.512302937238019-.229399169764292.512302937238019-.512690011005361v-4.957110300407294c-.000193536882762-1.151442285037774-.940134392986693-2.088227605760949-2.095246019444858-2.088227605760949v-.00000196484234Z"/>
  <path class="cls-1" d="M27.791487882645924,17.489457644928734c1.360045572823765,0,2.466548004061224-1.106952379931499,2.466548004061224-2.46699893517507,0-1.360174269939307-1.106502431237459-2.467127632291522-2.466548004061224-2.467127632291522-1.360175252359113,0-2.466677683597482,1.106953362352215-2.466677683597482,2.467127632291522,0,1.360046555243571,1.106502431238368,2.46699893517507,2.466677683597482,2.46699893517507Z"/>
  <path class="cls-1" d="M30.969864544200391,19.716304815467993c-.054984123325994-.417208540412503-.29069436384998-.785227274954195-.645063344791197-1.007672870802708-.826109731146062-.524923113915975-1.753432375413468-.558014973730678-2.480262597429828-.093872265440041-.676418284759166.433367396552967-1.044372179532729,1.227737078805148-.937559468257859,2.022878943750584l.425319405945629,3.209087133524008c.014229381830773.105460900352227-.034253081115821.179309466506311-.064448764624103.213240313622919-.030067968813455.034573350274513-.095868544360201.091618592289706-.20171455363834.091618592289706h-2.775075268972614c-1.155240323574617,0-2.095053464982811.936785320723175-2.095053464982811,2.088292445529987v4.957110300407294c0,.283288876399638.229336294836685.512690011005361.512302937238019.512690011005361h3.130733185910685c.282838927706507,0,.512173257702671-.229399169764292.512173257702671-.512690011005361v-2.621713498745521c0-.147761972076296.120462464874436-.267837363184299.268674385643862-.267837363184299h2.217252849704892c.822246852841999,0,1.60818147072041-.358683772779841,2.1537059473103-.980630757831932.549774428661294-.617313888898025.801323256167962-1.447866126576628.69013091328452-2.277709056489584l-.711115420043825-5.332791916630413Z"/>
  <path class="cls-1" d="M22.465455020627815,22.251034782921124c.629030238503219,0,1.140690672585151-.511852988544888,1.140690672585151-1.140753547512759v-1.107661687698055c0-.629674706500737-.511658469240501-1.141527695045625-1.140690672585151-1.141527695045625h-12.930995929493292c-.629095078272258,0-1.140754529933474.511852988544888-1.140754529933474,1.141527695045625v1.107661687698055c0,.628902523809302.511659451661217,1.140753547512759,1.140754529933474,1.140753547512759h2.012061509109117v8.945889750501919c0,.283288876398728.229400152185008.512690011005361.512302937238928.512690011005361h7.882201214607448c.282838927706507,0,.512173257702671-.229399169764292.512173257702671-.512690011005361v-8.945887785660489l2.012257010835128-.000001964841431ZM9.418181738562453,21.110281235408365v-1.107661687698055c0-.063869136393805.052215661714399-.11627735257116.11627735257207-.11627735257116h12.930931089724254c.063996851089541,0,.11621251280485.052408216177355.11621251280485.11627735257116v1.107661687698055c0,.063869136394715-.052215661715309.115505169879725-.11621251280485.115505169879725h-12.930932072144969c-.06406169085767,0-.11627735257116-.051636033485011-.11627735257116-.115505169879725h.000000982419806Z"/>
  <path class="cls-1" d="M14.181562601012047,11.951925318817302h3.74334619162255l2.9869637716738,2.798769292101497c.129540032405203.121621721333213.297840492229625.185489875308122.468779734129384.185489875308122.091618592289706,0,.184009367270846-.018478351481463.271378007489147-.056207237134004.250517285740898-.107714573503472.41237896011171-.354046746942913.41237896011171-.627357176003898v-2.300694754271717h.881543803165187c1.378008153421433,0,2.498932520952621-1.12156785310799,2.498932520952621-2.499448291835506V2.789577826805726c0-1.377751618807451-1.120859527763059-2.499255246160828-2.498932520952621-2.499255246160828l-8.764326610844364.000708202542228c-1.377751741611064,0-2.498739966488756,1.120795424811149-2.498739966488756,2.498547043618601v6.662899200176071c-.000064839769038,1.377880438727516,1.120924367530279,2.499448291835506,2.498675126720627,2.499448291835506h.000000982420715ZM12.707363669232109,2.789577826805726c0-.812718354195567.661415737815332-1.473232966597607,1.474198931779938-1.473232966597607l8.764325628424558-.000772551101363c.813039605774065,0,1.474456326011023.661222814946086,1.474456326011023,1.47400551769897v6.662899200176071c0,.812911891081058-.661416720236957,1.474070234666215-1.474456326011023,1.474070234666215h-1.393783865478326c-.282838927706507,0-.512302937238928.229335312416879-.512302937238928.512625171237232v2.026741822054646l-2.561964634885953-2.400877108051645c-.095031521898818-.08846305690895-.220256762465397-.138489885240233-.350441262869026-.138489885240233h-3.945897767720453c-.812718354196477,0-1.474198931780847-.661158343585157-1.474198931780847-1.474070234666215V2.789577826805726h.000064839769038Z"/>
  <path class="cls-1" d="M17.264843883319372,4.926415610209006c.282838927706507,0,.512173257702671-.229335312416879.512173257702671-.51262468002642,0-.233198681930844.102627598972504-.452554564589263.281357437248516-.602697924510721.181305745426471-.152460890420116.413345662107531-.214012250710766.652337187864759-.17093924189976.308849498910604.053889215425443.572501749791627.317992397420312.626713690426186.626584502100741.053502632868913.305630597394156-.066765312702046.60662515137119-.313806793907133.78522629253348-.617956392053202.446502361691273-.972262498067721,1.10148029647371-.972262498067721,1.796504647407346v.163148645523506c0,.28328936761136.229399169764292.512689028586465.512302937238019.512689028586465.282903767474636,0,.512302937238928-.229400152185917.512302937238928-.512689028586465v-.163148645523506c0-.362545668663188.199783114486308-.714275376316436.547650435046307-.965179244615683.56786668879613-.410318823844136.844974173972332-1.097681766727874.722967343712298-1.793478791565576-.128317901019727-.731337077107128-.728117193169965-1.330944551611537-1.458810293490387-1.459454761487905-.535739566135817-.092391020586547-1.077466004189773.050799011023628-1.488491188537409.395639247715735-.411091988957196.345548562035219-.646800264638841.851284016704994-.646800264638841,1.387795765532246.000064839768129.28328936761045.229399169764292.512624680027329.512367777006148.512624680027329l-.00000196484234-.000000491210812Z"/>
  <path class="cls-1" d="M18.850233193140411,8.598874251752932c-.189159216728513-.189352753612184-.53605983529269-.189352753612184-.725221016863543,0-.047128687182521.046999990066979-.078741021379756.102435044508638-.11029048065302.165531015790293-.023694023127064.063095971280745-.039467770342526.126192924984025-.039467770342526.197014652872895,0,.133982538939563.055241517558898.260175463923588.149756286155025.362610508432226.102499884276767.094644448132385.228562147303819.149306337460985.36267436577873.149306337460985.070887550078623,0,.133982538938653-.015452495637874.197079492641024-.039338090807178.062967274166112-.0238217378228.118143951955972-.063095971281655.165467158443789-.11003210400122.094514768596127-.094644448133295.149756286153206-.228626987071948.149756286153206-.362610508431317,0-.070757870542366-.007855436143473-.133918681592149-.039402930574397-.197014652873804-.023694023127973-.063032113934241-.063159828628159-.118466185955185-.110353355578809-.16546715844288h.000001964840521Z"/>
</svg>