<?xml version="1.0" encoding="UTF-8"?>
<svg id="Layer_1" data-name="Layer 1" xmlns="http://www.w3.org/2000/svg" viewBox="0 0 32 32">
  <defs>
    <style>
      .cls-1 {
        fill: #0f174b;
      }
    </style>
  </defs>
  <g id="Layer_29" data-name="Layer 29">
    <path class="cls-1" d="M11.65739503718396,16.835271841691792c-1.059987323833411.333836437730497-2.196964845243201.333836437730497-3.256952169076612,0v.793203725167587c.000299218234431.299669649762109.24315571175066.542527178636192.542825361513678.542825361512769h2.171301446051075c.299669649761199-.000300253591377.542526143277428-.24315571175066.542825361511859-.542825361512769v-.793203725167587Z"/>
    <path class="cls-1" d="M14.371521844746894,11.657396590219832c0-2.39835321173905-1.944249680362191-4.34260289210124-4.342602892100331-4.34260289210124-2.398353211739959,0-4.34260289210215,1.944249680362191-4.34260289210215,4.34260289210124,0,2.39835321173814,1.944249680362191,4.34260289210215,4.34260289210215,4.34260289210215,2.397221566307053-.002729201608417,4.339873690492823-1.945381325795097,4.342602892100331-4.34260289210215ZM7.31479214508181,11.657396590219832c0-1.498970498496419,1.215156309066515-2.714126807562934,2.714126807564753-2.714126807562934,1.498970498496419,0,2.714126807562934,1.215156309066515,2.714126807562934,2.714126807562934,0,1.498970498497329-1.215156309066515,2.714126807562934-2.714126807562934,2.714126807562934-1.498242642377591-.001757001187798-2.712369806376955-1.215884165184434-2.714126807564753-2.714126807562934Z"/>
    <path class="cls-1" d="M9.486093591132885,19.256951651396776h1.085650723025537v12.484983314792771h-1.085650723025537v-12.484983314792771Z"/>
    <circle class="cls-1" cx="10.028918952646109" cy="11.657396590219605" r="1.628476084537738"/>
    <path class="cls-1" d="M25.770854436514128,19.799777012909544c-3.297734889623825,0-5.971078976639546,2.673344087016631-5.971078976639546,5.971078976639546,0,3.297734889623825,2.673344087015721,5.971078976640456,5.971078976639546,5.971078976640456,3.297736960337716,0,5.971078976637727-2.67334201630365,5.971078976637727-5.971078976640456-.003739710246009-3.296185995234737-2.674892981402081-5.967339266391718-5.971078976637727-5.971078976639546ZM29.954409895268327,24.526157833177422l-4.88542825361219,4.885428253614919c-.211972823264659.211910701832494-.555583033068615.211910701832494-.767555856335093,0l-2.714126807562934-2.714126807563844c-.211910701831584-.211972823264659-.211910701831584-.555583033068615,0-.767555856332365l1.628476084537397-1.628476084538306c.211972823264659-.211910701832494.555583033068615-.211910701832494.767555856335093,0l.701872794857991.7018727948589,2.873174240909066-2.873174240910885c.211972823264659-.211910701830675.555583033068615-.211910701830675.767555856333274,0l1.628476084537397,1.628476084539216c.211910701833403.211972823264659.211910701833403.555583033068615,0,.767555856332365Z"/>
    <path class="cls-1" d="M25.068981641656137,26.154633917715728c-.211972823264659.211910701832494-.555583033068615.211910701832494-.767555856335093,0l-.701872794857991-.7018727948589-.860920228204122.860920228205032,1.94657095122966,1.946570951230569,4.117872397280735-4.117872397280735-.860920228204122-.860920228205032-2.873174240909066,2.873174240909066Z"/>
    <path class="cls-1" d="M25.770854436514128,18.714126289884007c.130753191480835,0,.258385816325244.012621004404537.387374759116938.019677999155647l1.262069379661625-.92565283176009c2.71212856814418-1.996004081275714,4.315878251765753-5.160823953560794,4.321636908574874-8.52826116135293C31.741935483867564,4.30537058965183,27.694628892668334.258065033810453,22.719838958160835.258065033810453c-2.110343754886344.001423486745807-4.153662625354627.741254030001073-5.775729848755873,2.091234684520714l-.596632875774958.497227971094617c-.201362482564946.167527526585218-.493589984695063.167527526585218-.694952467260009,0l-.596632875774958-.497227971094617C13.433823667193792.999319063811527,11.390503761369473.25948852055626,9.280161041839165.258065033810453,4.305370071973812.258065033810453.258064516132436,4.30537058965183.258064516132436,9.279890295926634c.005758268549471,3.367437207792136,1.609508599269247,6.532257080077216,4.321636390897766,8.52826116135293l3.820744031792856,2.802132170510959v-1.453415816564302c-.648777606356816-.228490912212692-1.083541700387286-.840558893291927-1.085650723025537-1.528392244366842v-1.277336757095327c-2.596293838721976-1.498970498497329-3.485849458993471-4.818838219222016-1.986878960497052-7.415132057943083,1.498971016177165-2.596293838721976,4.818838736902762-3.485849976671489,7.415132575624739-1.986878960496142,2.596293838718339,1.498971016176256,3.485848941312724,4.818838736900034,1.986878442816305,7.41513257562201-.476428938920435.825198333705885-1.16168010911133,1.51044950389678-1.986878442816305,1.986878442817215v1.277336757095327c-.002099704424836.687851987505383-.436862763095633,1.299944817157666-1.085650723025537,1.528460577942496v3.84191449836635l4.342602892100331,3.184417113579912,2.941232411825695-2.156781596522706c.779565999982879-3.048507843185689,3.541393784977117-5.312359870341425,6.829626166118032-5.312359870341425h-.000004141429599ZM20.377069933660096,11.848199464589015l-1.016236234161624-2.71039434481736-.662858464429519,2.651091154477399c-.060357183980159.241730024870776-.277523359016413.41133499569878-.526675859731768.411325677482637h-1.628476084539216v-1.085650723024628h1.204665034445497l.982785913385669-3.931277214617694c.057673538087329-.23057405092095.258640514199215-.396814110812556.495938174848561-.410240105447883.236570839886554-.011504889330354.453867469930628.129950271963025.53909393412323.350936397429905l1.496229907959787,3.990580922635672h1.252366011876802c.205617800702385-.000018636429559.393595185243612.116141195159798.485557683450679.300046519787429l.600093039574858,1.200118780931916.600093039574858-1.200118780931916c.091962498208886-.183905324627631.279939882746476-.300065156216988.485557683450679-.300046519787429h5.428253615125868v1.085650723024628h-5.092719191568904l-.935627463131823,1.871254926264555c-.134026990981511.268165800541283-.460071330340725.376906262355078-.728237130882917.242878236015713-.105113605504812-.052535060249284-.190342140409484-.137763595154865-.242878236018441-.242878236015713l-.935627463131823-1.871254926264555h-1.292941660980432c-.226225550633899-.000026919286938-.428745562559925-.14026708889287-.508356249240023-.352022487142676Z"/>
  </g>
</svg>