<?xml version="1.0" encoding="UTF-8"?>
<svg id="Layer_1" data-name="Layer 1" xmlns="http://www.w3.org/2000/svg" viewBox="0 0 32 32">
  <defs>
    <style>
      .cls-1 {
        fill: #0f174b;
      }
    </style>
  </defs>
  <g id="_48_Work_time" data-name="48 Work time">
    <g>
      <path class="cls-1" d="M27.121000330811512,18.707000709731801c-.760000222509916.761499398524393-2.043500883139131,1.292999256740586-3.121000263756287,1.292999256740586h-4.542499504161242c.343500134449641.588500971629401.542499537688855,1.270500172457105.542499537688855,1.999999983236194v.277999875599562c.594499583030483.347000119161748.999999991618097.98500060209517.999999991618097,1.722000107636632,0,1.103000631623217-.896999351612976,1.999999983236194-1.999999983236194,1.999999983236194h-5.999999949708581c-1.102999677949811,0-1.999999983236194-.896999351612976-1.999999983236194-1.999999983236194,0-.736999505541462.405500408588523-1.374999988474883.999999991618097-1.722000107636632v-.277999875599562c0-.729499810779089.19900035691353-1.411499011606793.542499537688855-1.999999983236194h-4.5424999809984c-1.076499929941747,0-2.360499839071053-.531499858216193-3.121499989094445-1.292999256740586L.293000010180549,14.121500984678278c-.102499990796787-.102499960994464-.199499992844721-.21599960146159-.293000010180549-.335499760676612v13.213998683797399c0,1.654499040087103,1.345500010895194,2.99999997485429,3.000000004656613,2.99999997485429h26.000000020489097c1.654499040087103,0,2.99999997485429-1.345500934767188,2.99999997485429-2.99999997485429v-13.213499912133557c-.093000411206958.119000433876863-.190000532464182.232000349007649-.291999814446172.333999630989638l-4.586999854742317,4.586501083076655ZM28.000000033527613,26.999999907799065h-2.99999997485429c-.552000041148858,0-.999999991618097-.447999950469239-.999999991618097-.999999991618097s.447999950469239-.999999991618097.999999991618097-.999999991618097h2.99999997485429c.552000041148858,0,.999999991618097.447999950469239.999999991618097.999999991618097s-.447999950469239.999999991618097-.999999991618097.999999991618097Z"/>
      <path class="cls-1" d="M29.00000002514571,6.000000083819032h-6.999999941326678v-.999999991618097c0-1.654499993761419-1.345500934767188-2.99999997485429-2.99999997485429-2.99999997485429h-5.999999949708581c-1.654499993761419,0-2.99999997485429,1.345499981092871-2.99999997485429,2.99999997485429v.999999991618097H3.000000243075192C1.345500249313773,6.000000083819032.000000268220901,7.345500064911903.000000268220901,9.000000058673322v1.999999983236194C.000000268220901,11.819000279185275.420500274948608,12.833999660326299,1.000000259838998,13.413999579170195l4.585499725053523,4.586000404065999c.579500193506647.579500193507556,1.594500051484829.999999991618097,2.414500216273154.999999991618097h5.36350055013645c-.833499901460527-.733499520829355-1.363499629989747-1.805000290047246-1.363499629989747-2.99999997485429v-.277999875599562c-.594499583029574-.347000119161748-.999999991618097-.984999648420853-.999999991618097-1.722000107636632,0-1.102999677948901.897000305286383-1.999999983236194,1.999999983236194-1.999999983236194h5.999998996034265c1.103000631623217,0,1.999999983236194.897000305287293,1.999999983236194,1.999999983236194,0,.736999505541462-.405500408587613,1.374999988474883-.999999991618097,1.722000107636632v.277999875599562c0,1.194999684807044-.530000682203536,2.266500454024936-1.363500583664063,2.99999997485429h5.36350055013645c.819999687950258,0,1.835500701778074-.420499798110541,2.413999537260679-.999999991618097l4.586500129404158-4.586000404065999c.579000468169397-.579999918843896.999500266279938-1.595000253659236.999500266279938-2.413999537260679v-1.999999983236194c0-1.654499993761419-1.345500934767188-2.99999997485429-2.99999997485429-2.99999997485429ZM12.000000167638063,6.000000083819032v-.999999991618097c0-.55149983897536.448499675806488-.999999991618097.999999991618097-.999999991618097h5.999999949708581c.551500315812518,0,.999999991618097.448500152642737.999999991618097.999999991618097v.999999991618097h-7.999999932944775Z"/>
    </g>
    <path class="cls-1" d="M19.000000108964741,22.999999941326678v-.999999991618097c0-1.649999604700497-1.350000370153793-2.99999997485429-2.99999997485429-2.99999997485429s-2.99999997485429,1.350000370153793-2.99999997485429,2.99999997485429v.999999991618097c-.552000041149768,0-.999999991618097.447999950469239-.999999991618097.999999991618097s.447999950468329.999999991618097.999999991618097.999999991618097h5.999999949708581c.552000041148858,0,.999999991618097-.447999950469239.999999991618097-.999999991618097s-.447999950469239-.999999991618097-.999999991618097-.999999991618097ZM18.000000117346644,22.999999941326678h-3.999999966472387v-.999999991618097c0-1.103000631623217.897000305286383-1.999999983236194,1.999999983236194-1.999999983236194,1.103000631623217,0,1.999999983236194.896999351612976,1.999999983236194,1.999999983236194v.999999991618097Z"/>
    <path class="cls-1" d="M19.000000108964741,13.00000002514571h-5.999999949708581c-.552000041149768,0-.999999991618097.447999950469239-.999999991618097.999999991618097s.447999950468329.999999991618097.999999991618097.999999991618097v.999999991618097c0,1.649999604700497,1.350000370153793,2.99999997485429,2.99999997485429,2.99999997485429s2.99999997485429-1.350000370153793,2.99999997485429-2.99999997485429v-.999999991618097c.552000041148858,0,.999999991618097-.447999950469239.999999991618097-.999999991618097s-.447999950469239-.999999991618097-.999999991618097-.999999991618097ZM18.000000117346644,16c0,1.103000631623217-.896999351612976,1.999999983236194-1.999999983236194,1.999999983236194-1.103000631624127,0-1.999999983236194-.896999351612976-1.999999983236194-1.999999983236194v-.999999991618097h3.999999966472387v.999999991618097Z"/>
  </g>
</svg>