<?xml version="1.0" encoding="UTF-8"?>
<svg id="Layer_1" data-name="Layer 1" xmlns="http://www.w3.org/2000/svg" viewBox="0 0 32 32">
  <defs>
    <style>
      .cls-1 {
        fill: #fff;
      }
    </style>
  </defs>
  <g id="Page-1">
    <g id="_004---Selection-Document" data-name="004---Selection-Document">
      <path id="Shape" class="cls-1" d="M7.999968200922922,29.714311574183739h3.428562202622743c.31556225175791,0,.571437842078922-.255811694143631.571437842078922-.571437842079831v-.571437842079831c0-.631187446017975-.511687284465552-1.142875684158753-1.142874730483527-1.142875684158753h-2.285687472139216c-.631187446017975,0-1.142874730484436.511688238140778-1.142874730484436,1.142875684158753v.571437842079831c0,.315563205431317.255875113484763.571437842079831.571437842078922.571437842079831h-.000000953673407Z"/>
      <circle id="Oval" class="cls-1" cx="9.714280773486735" cy="24.571437752669681" r="1.714313049401426"/>
      <circle id="Oval-2" data-name="Oval" class="cls-1" cx="9.714280773486735" cy="14.285687248619297" r="1.714312572564836"/>
      <path id="Shape-2" data-name="Shape" class="cls-1" d="M7.999968200922922,19.42856202380699h3.428562202622743c.31556225175791,0,.571437842078922-.255811694141812.571437842078922-.571437842079831v-.571437842078922c0-.631187446018885-.511687284465552-1.142875684158753-1.142874730483527-1.142875684158753h-2.285687472139216c-.631187446017975,0-1.142874730484436.511688238139868-1.142874730484436,1.142875684158753v.571437842078922c0,.315624240589386.255875113484763.571437842079831.571437842078922.571437842079831h-.000000953673407Z"/>
      <path id="Shape-3" data-name="Shape" class="cls-1" d="M8.571406043001843,6.857124524456594c-.631187446017975,0-1.142874730484436.51168776130271-1.142874730484436,1.142875207321595v.571437842078922c0,.31556225175791.255812647817038.571437842080741.571437842078922.571437842080741h3.428562202623652c.315562251757001,0,.571437842078922-.255812647817947.571437842078922-.571437842080741v-.571437842078922c0-.631187446018885-.511687284464642-1.142874730485346-1.142874730484436-1.142874730485346l-2.285688425812623-.000000476836249Z"/>
      <path id="Shape-4" data-name="Shape" class="cls-1" d="M7.999968200922922,2.85712471817169V.807999739139632l-2.62056258269331,2.620562582692401h2.049124740612569c.315625194262793,0,.571437365241763-.255812409397549.571437842080741-.571437603660343Z"/>
      <path id="Shape-5" data-name="Shape" class="cls-1" d="M9.71428077348628,5.714312259639883c.946749697774976,0,1.714312572565177-.767499932283499,1.714312572565177-1.714312572564268s-.76749993228259-1.714312572565177-1.714312572565177-1.714312572565177c-.195687296193682.004374980976536-.389124874647678.043062448983619-.571437842078922.114312411632454v.457124953610219c-.001125335707002.699562557409081-.427187924391546,1.328312411847946-1.076562893502341,1.588562506309245.200812342027348.745874890080813.875562677632843,1.265312685802201,1.647999781907856,1.268625273577527h.000000953673407Z"/>
      <path id="Shape-6" data-name="Shape" class="cls-1" d="M5.142843363541942,31.999999999996362h21.714312319240889c.315563205433136,0,.571437842079831-.255811694142722.571437842079831-.571437842079831V.571437484451963c0-.31556249017558-.255811694143631-.571437484451963-.571437842079831-.571437484451963H9.142843885080765v1.20799995818652c.187687875938536-.041375041470019.379187588162495-.063187480678607.571437842080741-.065124989282594,1.134750378892932-.004374980975626,2.163687730174388.66562498359599,2.618562727628159,1.70518769739374.454874997454681,1.039562713795931.248874667088785,2.25000002514571-.524312978881426,3.080562625979837.810687074183988.371125225399737,1.331624999622363,1.179812444521303,1.334312453876919,2.071437382007389v.571437842078922c0,.946749697774976-.767499932284409,1.714312572564268-1.714312572565177,1.714312572564268h-3.428562202623652c-.946750174612134,0-1.714312572564268-.767499932283499-1.714312572564268-1.714312572564268v-.571499830910398c.002687454253646-.891624937486085.523562437186229-1.7003126334439,1.334312453877828-2.071437858843638-.354812626036619-.379437450835212-.598875052471158-.848812589594672-.705687530776231-1.357125297454331h-2.342875029997231v26.857124628761085c0,.315624240587567.255812647817038.571437842079831.571436888405515.571437842079831ZM26.118281239099815,24.975999753651195l-.738874443681198.73831177582997.738874443681198.738874443681198c.148563386672322.143499375993088.208124163093089.355937961741802.155813218905678.555686956894533-.052312851536044.199811937657614-.208312990607737.355812076730217-.408124928266261.408124928267171s-.412250523406328-.007249832234265-.555749899400325-.155813218904768l-.738874443683017-.738874443682107-.738311775827242.738874443682107c-.223125460257506.223249437919549-.584999091011923.223438265436016-.808313378784078.00031280517851-.223249437920458-.223125460256597-.223438265438745-.584999091010104-.000312805179419-.808313378783168l.738874443681198-.738874443683017-.738874443681198-.738311775829061c-.223125460259325-.22331238042625-.222999575247741-.585187918527481.000312805179419-.808313378784987.223312380423522-.223125460257506.585187918526572-.222999575245922.808313378784078.000312805180329l.738311775827242.738311775829061.738874443683017-.738311775829061c.224187853456897-.216562273539239.580625540547771-.213438036443222.801061639202089.006937027053937.220438006002951.22043800600386.223499300594995.576875693092916.006999969558819.801061639202089v.000003814697266ZM23.26109393605293,6.453124714490514l.105125428419342.105687619436139,1.319437041722267-1.758812447175842c.122499467312082-.163312436975502.322813037666492-.248875143925034.525499349745587-.224500181800067.202688219427728.02443742779451.376937870423717.155125142878205.457124715192549.342875007647308.080186844767013.187749864769103.054124832757225.403999809965171-.068374634553038.567312246939764l-1.714313526239494,2.285687472139216c-.09912490955503.133062364157922-.251125338498241.216437342201971-.416563038712411.228562357596275h-.040561676478319c-.151561738755845-.000062465669544-.296875003317837-.060249806124375-.403999333128013-.167437555278411l-.57143784208165-.571437365240854c-.223125460255687-.223249914757616-.222999575244103-.585187441691232.000312805181238-.808312425110671.223249437918639-.223124983420348.585187918526572-.223000052083989.808313378784078.000312328342261h-.000562667852137v.000062942504883ZM19.999968335030644,6.285687159213012c0-.946750174612134.76749993228259-1.714312572564268,1.714313526239494-1.714312572564268.315563205431317,0,.571437842078012.255812647817947.571437842078012.571437365243582,0,.31556272859325-.255811694141812.571437365241763-.571437842078012.571437365241763s-.57143784208165.255812647817947-.57143784208165.571437365242673v2.285687948975465c0,.315562251756091.25581169414545.571437842079831.57143784208165.571437842079831h2.285686518462171c.315563205431317,0,.57143784208165-.255812647817038.57143784208165-.571437842079831,0-.315625194261884.255811694141812-.571437365242673.571437842079831-.571437365242673.315563205429498,0,.571437842078012.255812170980789.571437842078012.571437365242673,0,.946749697774976-.76749993228259,1.714312572564268-1.714313526239494,1.714312572564268h-2.285686518462171c-.946750651450202,0-1.714313526239494-.767499932283499-1.714313526239494-1.714312572564268v-2.285687472139216ZM25.59996877908452,15.771437463587972l-1.714311618890861,2.285687472139216c-.09912490955503.133062364157922-.25112533850006.216438295875378-.416563038712411.228563311269681h-.040561676480138c-.151561738752207-.000062942505792-.296875003316018-.060249329286307-.403999333128013-.167436601602276l-.571437842078012-.571437842079831c-.223125460257506-.223249437919549-.222999575245922-.585187918527481.0003128051776-.808313378784078.223249437920458-.223125460257506.585187918528391-.222999575246831.808313378785897.00031280517851l.105125428421161.105688096274207,1.318874373870131-1.758874912844476c.122499467312082-.163312913812661.322813037664673-.248874667088785.525499349745587-.224437716131433.202686312079095.024436950956442.376937870423717.155124666040138.45712471519073.34287453080924.080186844768832.187812807274895.054124832759044.404062275632896-.068374634553038.567375189445556l-.000001907348633-.000000953674316ZM19.999968335030644,16.571437663264078c0-.946749697774976.76749993228259-1.714312572565177,1.714313526239494-1.714312572565177.315563205431317,0,.571437842078012.255812647817947.571437842078012.571437842079831,0,.315562251757001-.255811694141812.571436888405515-.571437842078012.571436888405515s-.57143784208165.255811694142722-.57143784208165.571437842079831v2.285686518463081c0,.315563205432227.25581169414545.571437842079831.57143784208165.571437842079831h2.285686518462171c.315563205431317,0,.57143784208165-.255811694141812.57143784208165-.571437842079831,0-.315563205429498.255811694141812-.571437842078922.571437842079831-.571437842078922.315563205429498,0,.571437842078012.255811694143631.571437842078012.571437842078922,0,.946750651450202-.76749993228259,1.714313526240403-1.714313526239494,1.714313526240403h-2.285686518462171c-.946750651450202,0-1.714313526239494-.767499932283499-1.714313526239494-1.714313526240403v-2.285686518463081ZM19.999968335030644,26.285686429054294c.001249313369044-.612438208748245.327625278319829-1.178062452130689.857124338193898-1.485687272462201.271999362168572-.146375657764111.611063010366706-.050125122631471.765562066049824.217374804064093.154499055681299.267436984190681.068500519564623.609312064305414-.194187166476695.771812447591401-.177312852934847.102375031661722-.286312106471087.291812899988145-.285688403460881.496562963313409v2.285688425812623c0,.315563205429498.255811694141812.571437842078922.571437842078012.571437842078922h2.285749460968873c.204313280482893-.000562667852137.393062595947413-.109249116211686.496000295461272-.285688403461791.097312928333849-.186000826052805.288749698051106-.30368805271064.498624807209126-.306499484626329.209875109156201-.002811431916598.404438023317198.109624863895988.506687169967336.292875293190264.102249146651957.183250429293366.095874787450157.407875065593544-.016750335878896.585062033516806-.307249072648119.529375082210208-.872499475693985.855688104655201-1.484561936758837.85712433819117h-2.285688425812623c-.946750651448383,0-1.714313526237675-.767499932283499-1.714313526237675-1.714311618889042l.000003814697266-2.285751368319325ZM14.857092606169317,5.714311305964657h3.428562202623652c.315563205429498,0,.571437842078012.255812647818857.571437842078012.571437365243582s-.255811694141812.571437365241763-.571437842078012.571437365241763h-3.428562202623652c-.31556225175791,0-.571437842078922-.255812647817038-.571437842078922-.571437365241763s.255874636647604-.571437365243582.571437842078922-.571437365243582ZM14.857092606169317,7.999998778103873h3.428562202623652c.315563205429498,0,.571437842078012.255812647817947.571437842078012.571437842079831,0,.315625194262793-.255811694141812.571437842078922-.571437842078012.571437842078922h-3.428562202623652c-.31556225175791,0-.571437842078922-.255812647816128-.571437842078922-.571437842078922,0-.315625194261884.255874636647604-.571437365242673.571437842078922-.571437842079831ZM14.857092606169317,15.99999886750993h3.428562202623652c.315563205429498,0,.571437842078012.255812647817038.571437842078012.571436888404605,0,.315563205432227-.255811694141812.571437842080741-.571437842078012.571437842080741h-3.428562202623652c-.31556225175791,0-.571437842078922-.255811694142722-.571437842078922-.571437842080741,0-.3156261479362.255874636647604-.571437842078922.571437842078922-.571437842078922v.000000953674316ZM14.857092606169317,18.285686339648237h3.428562202623652c.315563205429498,0,.571437842078012.255811694143631.571437842078012.571437842078922,0,.315563205432227-.255811694141812.571437842079831-.571437842078012.571437842079831h-3.428562202623652c-.31556225175791,0-.571437842078922-.255811694141812-.571437842078922-.571437842079831,0-.315563205429498.255874636647604-.571437842078922.571437842078922-.571437842078922ZM14.857092606169317,26.285686429054294h3.428562202623652c.315563205429498,0,.571437842078012.255811694143631.571437842078012.571437842078922,0,.315563205431317-.255811694141812.571437842080741-.571437842078012.571437842080741h-3.428562202623652c-.31556225175791,0-.571437842078922-.255811694143631-.571437842078922-.571437842080741,0-.315563205429498.255874636647604-.571437842078922.571437842078922-.571437842078922ZM14.857092606169317,28.571435890024077h3.428562202623652c.315563205429498,0,.571437842078012.255811694143631.571437842078012.571437842079831s-.255811694141812.571437842079831-.571437842078012.571437842079831h-3.428562202623652c-.31556225175791,0-.571437842078922-.255811694143631-.571437842078922-.571437842079831s.255874636647604-.571437842079831.571437842078922-.571437842079831ZM6.285654674684338,18.285686339648237c.002687454252737-.891624460648018.523562437185319-1.700311679767765,1.334312453876009-2.071437858842728-1.054562580449783-1.136375439946278-1.010499965516829-2.906312974984758.099249840892298-3.988812491172212,1.109749806408217-1.082499516187454,2.880250009300653-1.082499516187454,3.98999981570887,0,1.109749806409127,1.082499516187454,1.153812421342082,2.852437051225934.099249840892298,3.988812491172212.810687074183988.371124271725421,1.331624999623273,1.17981339819471,1.334312453876009,2.071437858842728v.571437842078922c0,.946750651450202-.76749993228259,1.714313526240403-1.714312572564268,1.714313526240403h-3.428500213792177c-.946750174612134,0-1.714312572565177-.767499932283499-1.714312572565177-1.714313526240403l.000000953676135-.571437842078922ZM6.285654674684338,28.571437797373619c.002687454252737-.891624460648927.523562437185319-1.700311679769584,1.334312453876009-2.071437858843638-1.054562580449783-1.136375439946278-1.010499965516829-2.906312974985667.099249840892298-3.988811537497895,1.109749806408217-1.082498562514047,2.880250009300653-1.082500469860861,3.98999981570887,0,1.109749806409127,1.082500469860861,1.153812421342082,2.85243800490025.099249840892298,3.988811537497895.810687074183988.371124271725421,1.331624999623273,1.17981339819471,1.334312453876009,2.071437858843638v.571437842078922c0,.946750651450202-.76749993228259,1.714313526238584-1.714312572564268,1.714313526238584h-3.428500213792177c-.946750174612134,0-1.714312572565177-.76749993228259-1.714312572565177-1.714313526238584l.000000953676135-.571437842078922Z"/>
    </g>
  </g>
</svg>