<?xml version="1.0" encoding="UTF-8"?>
<svg id="Layer_1" data-name="Layer 1" xmlns="http://www.w3.org/2000/svg" viewBox="0 0 32 32">
  <defs>
    <style>
      .cls-1 {
        fill: #fff;
        fill-rule: evenodd;
      }
    </style>
  </defs>
  <path class="cls-1" d="M15.872500000875334,26.87065601562972l-3.535798012372652-1.695364487430197c-.111905167857913-.069797404663404-.259202713898958-.035660117706357-.32899912324774.076243059522312-.009357944254589.015003366483143-.017019873082972.030998065923995-.022845447187137.047691475943793l-.328297426726749.684903580367973c-.053801709909749.115185723512695-.005814625645144.25225442536248.108084156585392.308728553938636l3.564825356148503,1.708998301552128c.115044388894603.053794742711034.251994648351683.005961932150967.308532477039989-.107758688836839l.342647867084452-.714581859641839c.053749953570332-.115185723510876.005736991137383-.252214612792159-.108149847324057-.308662863202699v-.000197072213268ZM27.850419815593341,8.044548404941452c-1.853482094305946-1.853519418589713-4.858602454605716-1.853548780358324-6.712120380221677-.000065690737756-1.853519916245205,1.853482094305946-1.853549775672946,4.858601459289275-.000065690739575,6.712120380221677,1.853482094307765,1.853519916245205,4.858600463976472,1.853549775671127,6.712120380223496.000065690737756l.000065690737756-.000065690737756c1.853384553513024-1.85352290218907,1.853384553513024-4.858531787294851,0-6.712054689483921ZM22.174395655361877,11.610091382639439c-.144099601466223-.134084749834074-.152219374835113-.359598068171181-.018132634373615-.503697669639223.134084749832255-.144099601468042.359597072856559-.15221837952231.503696674324601-.018133629690055l1.256699653305986,1.171119551130687,2.399511472836821-2.463891382229122c.137128420703448-.141055930596849.362642734356996-.144238945456891.503698664953845-.007109529438821.141053939967605.137129416016251.144236954829466.362641739042374.007108534126019.503697669639223l-2.637335832705503,2.708239031462654c-.134080768577405.144063770154389-.359561241546544.152156670041222-.503625011702752.018075901463817l-.000007962513337-.000007962513337-1.511613558252066-1.408291980185822ZM18.805388417938957,20.025860250503683c.179510890620804.078992117387315.318578183414502.194251494149285.460908116208884.144221029802793.057399770797929-.019894340537576.104525908263895-.06181100340109.130979369479974-.116499538276912l.342451790183986-.714257387207908c.053838536536205-.115183732883452.005842494443641-.252280303529915-.108085151900013-.308728553938636l-3.564693974672082-1.708998301552128c-.115182737569739-.053838536536205-.252280303531734-.005842494443641-.308728553939545.108085151900013l-.342517480923561.714257387207908c-.053801709908839.115185723510876-.005814625645144.252254425360661.108084156585392.308728553940455l3.281601728976966,1.573452430448015v-.0002607723236ZM18.3219762473218,22.644084059646048l-1.076669208663589,2.245570204409887c-.003784184646065.007958532465636-.007697760142037.015785683455761-.011740726486096.023612834444066.124716852438723.059748712346845.216755548559377.127065793985821.334819720781525.08558109749174.056024246554443-.019390711542655.102009753929451-.060306088307698.127784410849927-.113694742818552l.892983970225032-1.862284653225288c.052482918576061-.112269452862165.005814625646963-.245906311296494-.105148974964322-.301096484537993l-.162029191742477-.07768825576386ZM15.528157113682937,19.992007623412064l.291899781186657-.608845649288924,2.357568931803144,1.130676948616383-.291899781186657.608845649290743-2.357568931803144-1.130676948618202ZM14.312942156871031,23.795831810202799l-.54792246616762-.262545974348541c-.138799553271383-.068527383726178-.197278244679183-.235499305861595-.131566604868567-.3756534817785l1.159118052320082-2.417514716364167c.068479608644338-.138852304924512.235482385520299-.197372799530058.375653481779409-.131632295606323l2.462653211345241,1.180643712856181c.138796567327518.068529374353602.197297155646083.235479399576434.131632295604504.3756534817785l-1.159182747745035,2.417514716364167c-.068503496183439.138788604814181-.235431624493685.197291183763809-.375587791041653.131632295606323l-.862913537152053-.413811838167021c-.177224653866688-.084766930462138-.389609777706028-.009813798162213-.474376708168165.167409860390762-.084766930463957.177223658552975-.009814793477744.389609777706937.167409860390762.474376708169075h0l.810664517417536.388895142101319-.291899781186657.608847639916348-2.358090476452162-1.130481867030539.291964476611611-.608845649288924.495740132487299.237563587543264c.177224653868507.084766930462138.389609777706937.009813798164032.474376708168165-.167409860390762.084766930463957-.177223658554794.009814793477744-.389609777706937-.167409860388943-.474376708169075l-.000262762953753-.000264753582087ZM10.484330664860863,8.723843389705507l.069860109460933-.058705623048809c.150259601145081-.126376041234835.374516832945119-.107013198488858.500892874179954.043246402658042s.107013198490677.374516832944209-.043246402655313.500892874179044h0l-.527506580985573.444274425040931v2.525924340698111c0,.197247389938639-.159881303664406.357157557715254-.357128693602135.357193389027088h-3.69984918494265c-.197272272793271,0-.357193389027998-.159921116233818-.357193389027998-.357193389027088v-3.699979073448048c0-.197272272793271.159921116234727-.357193389027088.357193389027998-.357193389027088h3.69984918494265c.197247389937729.000035831311834.357128693602135.159945999090269.357128693602135.357193389027088v.244346653920729ZM7.193075383311225,10.293446940086142c-.153375929954564-.122484362653267-.178418533268996-.34611454649712-.055933672958417-.499490476451683.122484860309669-.153375929954564.34611454649621-.178418035611685.499490476450774-.055933672958417l.842757428977166.674205943181732,1.29042388486414-1.086844305888008v-.488890380058365h-2.985527599968918v2.985527599968918h2.985527599968918v-1.566993836506299l-1.05572978820328.889200780893589c-.12972029699813.108948089324258-.318274612579444.111295040243931-.450666332931178.00560959091672l-1.070341996199204-.856391243098187ZM19.587677522391459,2.675231813136634h3.248399042067831c1.820790003588627.004623483358955,3.295744148659651,1.47940170664333,3.300583366375577,3.300191710233776v.215972733927629c2.876987589474084.907759409752543,4.473362106302375,3.975902568507081,3.565601701237028,6.852889162666543-.536024480037668,1.69883813404158-1.866763567195449,3.029578216512164-3.565601701237028,3.565602696549831v9.39159383554761c1.286314232471341.616216946369605,1.204256547300247,2.421689064185557-.066793546360714,2.948347637457118-.315568353229537,1.536522291804431-1.665467239030477,2.64113594238006-3.234050592340282,2.646403145206932H5.343377473653163c-1.820662603369783-.004803386404092-3.29541793442877-1.479528609206682-3.300256903314221-3.300191212576465V5.975425513999653c.004839466543672-1.820789505933135,1.479792367473237-3.295567978047984,3.300582868719175-3.300191710233776h3.248008381237014v-.469648219161172c0-.197272521621926.159921116234727-.357193637855744.357193389027998-.357193637855744h2.519401051329623c.375587791040743-.960039159814187,1.556231503896925-1.444624681475034,2.621289376926143-1.444624681475034s2.2454408135618.484585646076084,2.621550149251561,1.44455948839277h2.519401051329623c.19724738993682.000035831311834.357128693603954.159946247918924.357128693603954.357193389027088v.469648219161172l.000001990627425.000063451281676ZM9.305774125916287,4.876120869446822v.467300024100041h9.567580318531327v-2.780577970976083h-2.428536825986157v-.001369801189867c-.172253059361537-.000041554367272-.319740710417136-.123460765897107-.350149550325114-.293008312393795-.055444973679187-.305140943850347-.284658870270505-.583798815889168-.62267554031132-.791161335368088-.781116624307288-.479041123826391-1.983676160870345-.479041123826391-2.764792785178543,0-.328688585213058.201622542399491-.554445755536108.470626613034256-.617652189465844.765787292419191-.019187667444385.181760798403047-.172466056605117.319727522504763-.355236601280922.319752156532559h-2.42853782129896l.000000995315531,2.313277946876042ZM23.815555330626012,25.724063992709489c.704471457840555.309510870913073,1.384484064155913.617522798616847,2.026465714301594.925337654109171.214960001714644.102813967814654.380096564436826.287036675930722.458885637721323.511915979115656.267046785231287.759068423807548-.519808820841718,1.455256876750354-1.237848402066447,1.111043380404226-1.589562586341344-.762199682330902-3.09961350127378-1.573908284361096-4.715006482130775-2.436300276864131-.610085810800229-.325688708167945-1.224345969421847-.653658676519626-1.847870512759982-.982152180149569l.557381932472708-1.162445387741172c.665335702893572.286290190269938,1.314949422443533.560969044901867,1.959084932552287.833691111789449.933164805099295.394831196081213,1.855239819209601.784964509064594,2.739614321473709,1.172880261976388.018982632715051.010466724288563.038871001364896.01919961121348.059424239911095.026091166839251l-.000131381475512-.000061709479269ZM24.285791531659925,16.857237633425029v8.296531220183169c.386763179050831.170811844376658.765396631590193.341494297908866,1.135896376361416.512047360591168v-8.883067896649663c-.375034396336559.064078329183758-.755700280502424.089108491070874-1.135896376361416.074686388090413v-.000197072215087ZM19.587679513020703,4.525516460525978h3.248399042066012c.787842957775865.001790072616132,1.430802006481827.63097894915154,1.449647285835454,1.418598458885754.380299608534187-.014461915547145.761074977266617.010523457200179,1.13622283942459.074556499586834.018992585855813-1.432910081988666-1.127213255147581-2.609909949504072-2.560123337136247-2.628903033017195-.008581599166064-.00011371465007-.017163198330309-.000184879616427-.025746788123797-.000213494899072h-3.248399042066012v1.13596156944368ZM7.82514569450268,28.497859394963598v-2.142051554126738c-.001643263770347-.405580589605961-.330005385922959-.733972571184495-.735586473185322-.735652661580389h-2.006506678342703l2.742093151528024,2.877704215707126ZM8.183904712789627,29.746210352632261h14.651915060600913c.659019438886389-.001636296568904,1.234603677725318-.446129690737507,1.402813770746434-1.083321888880164.343691951695291.169008335020408.684121263395355.368282184701457,1.066493116128186.403572045519468-.339905776421801,1.078359252202063-1.338647853912335,1.812721986560064-2.469304896245376,1.815646219723931H5.343383445538166c-1.426280294001117-.004654089270844-2.581323032266482-1.159783917531968-2.585869876430479-2.586065206845888V5.975425513999653c.004654089270844-1.42620415246347,1.159665723967009-2.581215787160545,2.585869876430479-2.585869876431389h3.248008878894325v1.135961818272335h-3.248008381237923c-.800028589712383.001793556215489-1.448143863711266.649879468444851-1.449973251238589,1.449908058159053v19.287537271542533c-.000339402147802.10073774236298.04218589535958.196863198651045.116955392186355.264373371248439l3.89631873682265,4.088613443223949c.043757994162661.053466289020434.102217774599922.092946422686509.168160327308215.11356336134304l.107496921198617.016502309688804.001562643317811.000195081585844ZM10.484332655491016,14.441680700121651v-.244347649235351c0-.19724738993682-.159881303667134-.357157557715254-.357128693603954-.357193389027088h-3.69984918494265c-.197272272793271,0-.357193389027998.159921116233818-.357193389027998.357193389027088v3.699848687287158c-.000000497656401.197273268106073.159920120920106.357194384339891.357192891370687.357194384339891h3.699849682599961c.19724738993682-.000035831310015.357128693603954-.159946994403072.357128693603954-.357194384339891v-2.52592434069993l.527506580983754-.444274425040931c.150259601145081-.126376041234835.169622443890148-.350633273032145.043246402655313-.500892874179044s-.350633273033054-.169622443891058-.500892874179954-.043246402656223l-.069860109459114.058705623048809v.000131381475512ZM7.193077373939559,16.011284250502285c-.152129298899126-.124000226203862-.174932445229388-.347848383860764-.050932219026436-.49997718510167.122270867753286-.150007786649439.342093974723866-.174598019653786.494489022518792-.055316578145721l.842953505877631.674466715505332,1.290423884865049-1.086844305888008v-.48908645695883h-2.985527599969828v2.985526604656116h2.985527599969828v-1.567124222669008l-1.055729788204189.889136085468635c-.129701386028501.108998850349963-.318292528235361.111345801269636-.450666332931178.00560959091672l-1.070538073099669-.856390247783565ZM10.484266964752351,20.159517015224992v-.244347649235351c0-.197237436796058-.159891256807896-.357128693603954-.357127698289332-.357128693603954h-3.699784987175917c-.197247389937729,0-.357157557716164.159881303665315-.357193389027088.357128693603954v3.699849682598142c-.000000497657311.197273268107892.159920120920106.357194384343529.357192891368868.357194384343529h3.699850180258181c.19724738993682-.000035831313653.357128693603954-.159946994404891.357128693603954-.357194384343529v-2.525924340696292l.527506580983754-.444274425042749c.151579387795209-.124786524433148.173300129916242-.348823791789982.048514600797716-.500404174899813-.124785529118526-.151578392482406-.348823791791801-.173300129916242-.500403179587011-.048513605483095-.001935886148203.001594493372977-.003855847269733.003208893029296-.005757892735346.004843198972594l-.069860109459114.05870562304699-.000065690738666.000065690739575ZM7.193076876283158,21.729119570291004c-.152129298899126-.124000226203862-.174932445229388-.347848383860764-.050932219027345-.499978180416292.122270867754196-.150005796022015.342093974724776-.174598019655605.494489022519701-.055315582832918l.842757926633567.674271633919489,1.290423884865049-1.086909001311142v-.488695298472521h-2.985527599969828v2.985526604656116h2.985527599969828v-1.567255604146339l-1.055729788204189.889199785578967c-.129726268883132.108953065895548-.318299495434076.111274138645967-.450666332931178.005543900178964l-1.070342493855605-.856388257154322ZM12.901650299640096,23.398980126265087l.073512912630576.27200544065272-.398548694673991.831212779392445c-.463629305272661-.19673977968705-1.000050915684369.005225399630945-1.218802069244703.458885637723142l-.343103720994804.71549555808997c-.224363730420919.469597209308631-.026181740434367,1.032188616381973.442969568104672,1.257481970280423l3.534950004660459,1.694908633517116c.021449021341141.012887328461147.044212852759301.023449602915207.067903321713857.031505676173765.478454510508527.183488166225288.94242819450028.01911202356132,1.200212585642475-.422552687605275l.36149812300846-.751828508207836c.217291027605825-.454693374247654.038940673361139-.999882707579673-.405070988726948-1.238240555869197l.398547699360279-.831147088654689c.009915320213622-.00280479545836.019567877473492-.005675281656295.029678279272048-.008806540177829.061902572309918.051726479770878.353475890434311.181662759954634.442512718881517.224321927222263.350380463221882.167636792033591.767849085816124.101876381826514,1.04972804348472-.165355531848036,1.782705300451198.938905777491527,3.680998431362241,1.978196956113607,5.432916672505598,2.862637149115471-.019609680670328.392046306906195-.342336333735147.70033493196388-.734868353978527.70199312544537h-14.296155919358171v-2.675689270678049c-.001829387527323-.800039538169585-.649934210726315-1.448144361369486-1.4499737488959-1.449973748896809h-2.481829930329695V5.975425513999653c.001644756740461-.405595519319832.330056146945935-.733978045413096.735651666264857-.735586473185322h3.248007883579703v.460515962407953c0,.197272272791452.159921116233818.357193389025269.357193389027998.357193389025269h10.281969087214748c.197247389938639-.000035831311834.357128693602135-.15994599908845.357128693602135-.357193389025269v-.460515962407953h3.248399042067831c.408877070285598.002061793396933.738666473022022.335193958926538.736606172597021.744072024526758-.000057728224419.011353549254636-.000376228772438.022704610222718-.000955501645876.034043727420794-1.613613359038936.277177590971405-3.017955932418772,1.263198059819842-3.826654704262182,2.686778564009728l-7.655525973283147-.005739977079429c-.196480002676253,0-.355758145928121.159278143251868-.355758145928121.355759141242743,0,.196480002678072.159278143251868.355758145928121.355758145928121.355758145928121l7.31653190468387.005544895495404c-.228737141083911.586471981041541-.353921791202083,1.208202968162368-.369978200124024,1.837498343320476l-6.946552709244315-.005283127855364c-.19649791833308-.002665451467692-.357951818459696.154467789649061-.360616274614586.35096570798305-.002665451468602.196497918333989.154466794335349.357950823145075.350964712667519.360616274612767.003216855544451.000043793825171.006434706403525.000043793825171.009651561947067,0l6.973426193058003.005283127855364c.089904742442741.877990556886289.392522067100799,1.720820643800835.881633406914261,2.455476995852223l-7.855061590601508-.003783189333262c-.19649791833308-.002665451469511-.357951818458787.154467789649061-.360616274613676.35096570798305-.002665451467692.19649791833217.154466794335349.357950823143256.350964712668429.360616274612767.003216855543542.000043793825171.006434706402615.000043793825171.009651561945248,0l8.418835430963554.003979266233728c.813195601467669.870377398452547,1.889215865263395,1.45028329161687,3.063346241895488,1.650944609313228v8.057988243450382l-3.391903445632124-1.443776922591496,1.693473390419967.002936176935691c.19647900736345.000274706722848.35598010099784-.158782476772103.356254807720688-.355261484135553.000274706724667-.196480997990875-.158782476770284-.355980100999659-.355261484133734-.356254807722507h-.000993323586954l-2.581630086702717-.004500810880927c-.006262517043069-.023395855945637-.013416835621683-.046528948940249-.021460965110236-.069403260235049-.144937656037655-.411986431896366-.428488741586989-.510938580557195-.773550245643492-.676357812515562l-.075209923368675-.2870068165048.398613390099854-.831276479504595c.212525463142811.090738815755685.451060477362262.099865847110777.669900213886649.025635312929808l2.383333635581948.003913575495972c.19647900736345.000274706722848.35598010099784-.158782476773922.356254807720688-.355261484135553.000274706724667-.196480997992694-.158782476772103-.355980100999659-.355261484133734-.356254807722507h-.000993323586954l-1.726087846629525-.002870486197935.23482448282266-.489216843119721c.224413496131092-.46957730302347.026252407744323-1.032192597638641-.442904872679719-1.257483960907848l-1.480697108094319-.70988596717325,3.414929044689416.002739104720604c.196498913646792.002665451469511.357950823145075-.154466794334439.360616274614586-.350965707981231.002665451467692-.196496923019367-.154466794334439-.357950823146894-.35096570798305-.360616274614586-.003216855542632-.000043793825171-.006433711087084-.000043793825171-.009650566631535,0l-4.899734809867368-.003913575494153-.599322482876232-.286616653333112c-.407950432752841-.194934279701556-.896840812810296-.073171519854441-1.165706037112614.290333156613997l-3.118854915685006-.003718493910128c-.196480002677163-.000274706722848-.35598010099784.158782476772103-.356254807721598.355261484135553-.000273711408227.196480997992694.158782476772103.355980100999659.355262479450175.356254807722507h.000992328271423l2.759183194260913.003326340107378-.074687383403216.155766674701226c-.217274107264529.45469138361841-.038889912337254.999864791923756.405136679464704,1.238174865127803l-.398548694673082.831212779394264c-.154493667818315.04313890872254-.296321962247021.122857605483659-.413486370418468.232409850537806l-2.277728806705454-.003847884756397c-.196480002678982-.000274706724667-.355980100999659.158782476772103-.356254807723417.355261484135553-.000273711410046.196480997992694.158782476773013.35598010099784.355262479450175.356254807722507h.000992328273242l1.862285648539.003131258521535-.881764788389773,1.838998281844397-.979151307788925-.004369429405415c-.196480002678982-.0007743544611-.356386189199839.157876740835491-.357160543660029.354355748198941-.000774354458372.19647900736345.157875745523597.356386189199839.35435574819985.357160543657301l.813478270705673.00339004021771Z"/>
</svg>