<?xml version="1.0" encoding="UTF-8"?>
<svg id="Layer_1" data-name="Layer 1" xmlns="http://www.w3.org/2000/svg" viewBox="0 0 32 32">
  <defs>
    <style>
      .cls-1, .cls-2 {
        fill: none;
        stroke-width: .4px;
      }

      .cls-1, .cls-2, .cls-3 {
        stroke: #fffffe;
        stroke-miterlimit: 10;
      }

      .cls-2 {
        fill-rule: evenodd;
      }

      .cls-3 {
        fill: #fffffe;
        stroke-width: .25px;
      }
    </style>
  </defs>
  <g>
    <path class="cls-2" d="M4.936602167930687,12.499592889164887l-.085200259105477-3.336125502166396c.486573656260589.067894305611844.92655357952026.288882160270077,1.268020385796262.613043520882457.427998605082394.407363802327382.701571613582928.97913873336347.718878074912936,1.614812335224997l.054581447726378,2.149312279860169-.368092014203285-.332148567510558c-.448632900006487-.405367000602382-1.0070944653271-.646990165852003-1.588187635126815-.708893050624283v-.000001015666385Z"/>
    <path class="cls-2" d="M5.130965322492557,27.135414181453598l7.618774124588526-.007320929208618-.111159697178664-4.441734100146277c-.043265391570458-1.728635111816402-.718878074912936-3.200336890944527-2.002208120313298-4.362524246212161-1.602165247197263-1.449070682480851-3.203666248042282-2.898143396295382-4.805831495235907-4.349210880498504-.530505325521517-.479251711386496-1.277339640233549-.581092661967887-1.899701399881451-.320833019185557-.233635450520524.09784734713503-.450629701732396.246948308403262-.632346276102908.447301868138311-.662299571540643.732190424958389-.60572106816835,1.87174465224598.124472555067769,2.534044985537548l3.553120769040106,3.21498078069726c.211003846041422.190368535448215.228310307367792.519188761527403.037940756254102.730193623236119-.192366352843237.211004861705987-.519189777194697.228309799535964-.730193623239757.035944462360931l-3.553120515123737-3.214980780695441c-1.152867085169419-1.043703681875741-1.243392487423989-2.839567837283539-.199688297714602-3.992434414618401.381404618168744-.420677168041948.860656329554331-.700240581712023,1.373855701574939-.834031375541599l-.128466158508672-5.05277980363735c-.024628406205011-.987125940256192-.850672067019332-1.771901011221416-1.837798007276433-1.747272605016406S.166714754181157,6.625429813680057.191343033427984,7.612555753937158l.298201160785538,11.873466507217017c.031950097167282,1.252711741859457.520520809066511,2.31904652038429,1.451068245954957,3.158404054745006l1.754594549893227,1.588852897148172c.863984924897522.783443023426116,1.34922704145356,1.760585970731881,1.435758840263588,2.902136999741742l-.000000507832738-.000002031335498Z"/>
    <path class="cls-2" d="M14.225435845324682,28.15981612377891l-10.494285916403896.011316563991386c-.256266547166888,0-.467936163058766.211004861706897-.467936163058766.467936163061495l.00399360344818,2.687138534586666c0,.258263856726444.211003846037784.467938194396083.467936163058766.467938194396083l10.494285916403896-.011316563991386c.258263856729172,0,.467936163062404-.209672306334141.467936163062404-.467936163062404l-.00399360344818-2.687138534586666c0-.258263856726444-.209672306333232-.467936163060585-.467936163062404-.467936163060585v-.000002031334589Z"/>
    <path class="cls-2" d="M27.063396180485142,12.499593904831272l.085200259105477-3.336125502165487c-.486573656260589.067894305610935-.928551396915282.288882160270077-1.270016679689434.613043520883366-.426667573214218.407363802327382-.701572121415666.979138733360742-.716880257517914,1.614812335224087l-.054581955562753,2.149311264192875.368092014203285-.332148567510558c.446635590447841-.405367000602382,1.007094973159838-.646990165852003,1.588188650795928-.708893050624283h-.000002031334589Z"/>
    <path class="cls-2" d="M30.061383725635096,5.774757746663454c-.987124924587988-.024628406205011-1.813169093235047.760146664760214-1.83779699160732,1.747272605016406l-.128465650675935,5.05277980363735c.513198356358771.133790793829576.992451083409833.413355223166946,1.373856463327684.834031375541599,1.04370368187665,1.152866577334862.952513017600722,2.949397010428584-.199688297714602,3.992434414618401l-3.553120769043744,3.214980780695441c-.211004861706897.192367368507803-.539823056453315.175726677032799-.730193623236119-.035944462360931-.190368535448215-.211004861708716-.175726677029161-.539823056453315.035944462364569-.730193623236119l3.553120769040106-3.21498078069726c.732190424962027-.662300333291569.788769182247052-1.801854560579159.126468848953664-2.534044985537548-.181050804512779-.199688297715511-.398046071393765-.348789258982833-.632346276102908-.447301868138311-.622362267480639-.260260658450534-1.369860828541277-.158419707867324-1.899701907710551.320833019185557-1.602166262862738,1.451067484203122-3.203666248038644,2.900140198017652-4.805832510901382,4.349210880498504-1.283330045404,1.162185323934864-1.958277466725121,2.633889134395758-2.002207104647823,4.362524246212161l-.111160712847777,4.441734100146277,7.61677681502988.007320929208618c.088527584870462-1.141551029009861.571773915369704-2.118691944980128,1.437756149825873-2.902136999740833l1.754595565558702-1.588852897147262c.928551396915282-.839355503027036,1.41911865662405-1.905692312885549,1.449070682479942-3.158404054744096l.300198724260554-11.873466507217017c.024627898372273-.987125940258011-.762144482148869-1.813169601069603-1.747272605018225-1.837798007275524l-.000002031334589.000002031334589Z"/>
    <path class="cls-1" d="M21.677142488370404,24.261063225319333h2.684479173104755c.259084219298479,0,.469427733981352.210343514682872.469427733981352.469427733981352v10.49395993524649c0,.258539500134283-.209901271832951.468440771967238-.468440771967238.468440771967238h-2.687141310582955c-.257982120853065,0-.467430871427325-.209448750574261-.467430871427325-.467430871427325v-10.495291522876343c0-.258906675360357.210199371531054-.469106046891412.469106046891412-.469106046891412Z" transform="translate(-6.982240319159253 52.964181180399919) rotate(-89.938214842902696)"/>
  </g>
  <g>
    <path class="cls-3" d="M14.514578406677174,1.60471208976378v.923659195691471h.238048704810353v-.685610490881118h2.494745777024946v.447561786070764h.238048704810353v-.685610490881118h-2.970843186645652ZM17.371162864403232.233549225361458h-2.742325728806463c-.818873596381309,0-1.485421593321007.666547996941517-1.485421593321007,1.485421593322826v.809400466770967h.238048704810353v-.809400466770967c0-.685552373521205.561820514989449-1.247372888512473,1.247372888510654-1.247372888512473h2.742325728806463c.685552373521205,0,1.247372888510654.561820514991268,1.247372888510654,1.247372888512473v.809400466770967h.238048704810353v-.809400466770967c0-.818873596381309-.666547996939698-1.485421593322826-1.485421593321007-1.485421593322826ZM14.514578406677174,2.52837128545525h.238048704810353v-.685610490881118h2.494745777024946v.685610490881118h.238048704810353v-.923659195691471h-2.970843186645652v.923659195691471Z"/>
    <path class="cls-3" d="M16.447503668710851,9.393658737077203h-.009473129610342c-.238048704810353.095254352339907-.618949879450156.095254352339907-.923659195690561-.019004376579687l-7.836544764804785-2.609062623304453v5.37992397565904c0,1.104520418682114.895065454782525,1.99958587346373,1.99958587346373,1.99958587346373h12.645175095862214c1.104520418681204,0,1.99958587346373-.895065454781616,1.99958587346373-1.99958587346373v-5.37992397565904l-7.874669752683985,2.62806699988414ZM24.084124716584483,12.145515712852102c0,.971257313181923-.790337972832276,1.761537168653376-1.761537168653376,1.761537168653376h-12.645175095862214c-.9711991958211,0-1.761537168653376-.790279855471454-1.761537168653376-1.761537168653376v-5.046620918508779l7.512831071982873,2.504277023994291c.361838680701112.133263105500191.799811102442618.123789975889849,1.094989171711859.009531246970255l7.560429189474235-2.513808270964546v5.046620918508779Z"/>
    <path class="cls-3" d="M14.752627111487527,2.290322580644897v.238048704810353h2.732794481835299v-.238048704810353h-2.732794481835299ZM22.322587547931107,2.290322580644897h-12.645175095862214c-1.104520418681204,0-1.99958587346373.895065454781616-1.99958587346373,1.99958587346373v1.647278439732872l8.112718457494339,2.704258858284447c.066602494071049.028535623549942.133263105501101.038066870520197.209454963900498.038066870520197s.14285246982945-.009531246970255.199981834290156-.038066870520197l8.045999728705283-2.675665117374592.076191858399397-.028593740909855v-1.647278439732872c0-1.104520418682114-.895065454782525-1.99958587346373-1.99958587346373-1.99958587346373ZM24.084124716584483,5.765798800461198l-7.960334740693725,2.656660740793996c-.076191858401216.028535623550852-.171388093380301.028535623550852-.247579951781518,0l-7.960334740693725-2.656660740793996v-1.475890346352571c0-.971257313181923.790337972832276-1.761537168653376,1.761537168653376-1.761537168653376h12.645175095862214c.9711991958211,0,1.761537168653376.790279855471454,1.761537168653376,1.761537168653376v1.475890346352571Z"/>
  </g>
</svg>