<?xml version="1.0" encoding="UTF-8"?>
<svg id="Layer_1" data-name="Layer 1" xmlns="http://www.w3.org/2000/svg" viewBox="0 0 32 32">
  <defs>
    <style>
      .cls-1 {
        fill: #fff;
        fill-rule: evenodd;
      }
    </style>
  </defs>
  <path class="cls-1" d="M2.92181786456058.161290445264058h23.605960037337354c.844788469890773,0,1.53597903616901.691254728976674,1.53597903616901,1.535978545437501v1.402320397786752H1.385773806919133v-1.402320397786752C1.385773806919133.852545051558991,2.076964373191913.161290322580498,2.921816883106658.161290322580498l.000000981453923.000000122683559ZM23.007184398778008,30.485807545933312l6.940334524577338-1.859639753502961c.189424982683704-.050749139934851.385859525924388.062648315549268.436608665861968.252073298233881l.217983396736599.81339953600127c.05074913993576.189424982681885-.062648315552906.38585952592166-.252073298232972.436608665861968l-6.940334524577338,1.859639753498413c-.189424982684613.050749139942127-.385859525924388-.062713091660044-.436608665859239-.252073298227515l-.217918620626733-.813399536004908c-.050813916047446-.189360206571109.062648315552906-.385859525923479.252008522120377-.436608665860149ZM20.936635585212571,18.513148340256521c-.526272546237124.141054892703323-.841443666979103.686944786522872-.700453550393831,1.213217332759996l1.536558095356668,5.734448670030361-1.559520245854401-1.559520245853491c-.385280466734912-.385280466735821-1.015624671139449-.385280466735821-1.400905137871632,0-.3852176535338.385280466732183-.3852176535338,1.015624671135811.000064776113504,1.400905137872542l3.420704811496762,3.420640035385077c.252652357420629.252652357421539.448959311353974.514500959935503.604100064200793.809670002241546l6.860705052934463-1.838285228346649c.02675646037369-.00713911278126.053514883657954-.013314435528628.080336120144239-.01878114685951-.007590582660669-.886726095587619-.077570376419317-1.633039170861593-.240044570395185-2.442322479341783l-.775258183090955-2.893274146885233c-.115005080831907-.429340000848242-.560362447730768-.686430503449628-.98970244857901-.571360646506037-.429277187651678.115005080830997-.686430503450538.560362447732587-.571360646505127.989702448579919l-.226023486360646-.843502762199932c-.141054892701504-.526272546235305-.68694478652742-.841508443094426-1.213282108869862-.700453550391103-.526207770124529.140990116589819-.841378890872875.686944786523782-.700388774282146,1.213217332758177l-.161895134779115-.604357205733322c-.141054892702414-.526272546235305-.687009562636376-.841443666982741-1.213282108871681-.700453550393831s-.841443666981831.686944786524691-.700453550393831,1.213217332760905l-.836618828038809-3.122320518509696c-.141054892702414-.526207770120891-.687009562640924-.841443666980922-1.213282108869862-.700388774276689l.000001962909664.000001962908755ZM28.063756938066945,4.064399652851534v16.714511112635591c-.200615546884364-.009904856507092-.403162599670395.014343001681482-.602170521202424.075448468002833-.606416300958699-.658837842347566-1.610913221094052-.840350324716383-2.410419262382675-.38174329839876-.370872688937197-.254839041952437-.82677874764704-.382709051348684-1.291366768368789-.339678083388208v-4.361395297704803l-1.265831239576983.590463711013399v.004116227520171l-4.643699411454691,2.166321277665702,1.463103946462979,1.477639313564396.502344642777643,1.874691366602747-2.891538932229196-2.920289711711121-2.122261743546005.990024366228681-2.122261743540548-.990024366228681-6.054895118135391,6.115163402276266c.15591364964439.067408378377877.327521275505205.10484308278501.507490417916415.10484308278501h10.514829605118393c.09088481195613.292980394864571.251816156695895.568594902781115.483112026045092.799892735045432l1.009127430745139,1.009127430746958H2.921816637740449c-.844788224527292,0-1.535978668123789-.691190566276418-1.535978668123789-1.535979036170829V4.0643967084834l26.677918968450285.000002944368134ZM23.349176756009911,14.902633815222543l-.855144796273635-.705147855647738v1.104064675564587l.855144796273635-.398916819916849ZM19.345082570167506,7.760847543040654h-1.038522045524587c-.266416299913544,0-.482405377542818.215989077628365-.482405377542818.482405377542818,0,.266416299916273.215989077629274.482405377545547.482405377542818.482405377545547h1.038522045524587c.266416299916273,0,.482405377545547-.215989077629274.482405377545547-.482405377545547.000064776111685-.266416299914454-.215989077629274-.482405377542818-.482405377545547-.482405377542818ZM8.074613110997234,15.751603288756996v-6.14623041851155h3.249482897943381c.266416299914454,0,.482405377542818-.215989077627455.482405377542818-.482405377543728v-3.249482897950656h9.72271981816175v9.878182488661878l-.424901855673852.19823649691898h-4.780765665937906c-.266416299915363,0-.482405377543728.215988096174442-.482405377543728.482404396090715,0,.266416299914454.215989077628365.482405377542818.482405377543728.482405377542818h2.712597865245698l-4.234169123615175,1.97528866963421-4.234232918272028-1.97528866963421h3.940351546568309c.266416299914454,0,.482405377543728-.215989077628365.482405377543728-.482405377542818,0-.266416299916273-.215989077629274-.482405377544637-.482405377543728-.482405377544637h-6.00858412337675l-.424903818586245-.198299310121001ZM8.556953712427458,8.640497339041758h2.284672142857744v-2.284672142857744l-2.284672142857744,2.284672142857744ZM16.746074525836775,7.760847052310965h-3.448812737134176c-.266416299916273,0-.482405377545547.215988586899584-.482405377545547.482405868272508s.215989077629274.482405377545547.482405377545547.482405377545547h3.448812737134176c.266416299913544,0,.482405377542818-.215989077629274.482405377542818-.482405377545547,0-.266416299914454-.215989077629274-.482405377542818-.482405377542818-.482405868272508ZM19.345082570167506,13.9025750402634h-.809605226129861c-.266416299912635,0-.482405377541909.215989077628365-.482405377541909.482405377543728,0,.266416299913544.215989077629274.482405377544637.482405377541909.482405377544637h.809605226129861c.266416299916273,0,.482405377545547-.215989077631093.482405377545547-.482405377544637,0-.266416299915363-.215989077629274-.482405377543728-.482405377545547-.482405377543728ZM17.408643864856458,13.9025750402634h-3.464056715659353c-.266416299911725,0-.482405377540999.215989077628365-.482405377540999.482405377543728,0,.266416299913544.215989077629274.482405377544637.482405377540999.482405377544637h3.464056715659353c.266416299915363,0,.482405377543728-.215989077631093.482405377543728-.482405377544637,0-.266416299915363-.215989077628365-.482405377543728-.482405377543728-.482405377543728ZM12.421279694718578,13.9025750402634h-2.162526967786107c-.266416299916273,0-.482405377544637.215989077628365-.482405377544637.482405377543728,0,.266416299913544.215989077628365.482405377544637.482405377544637.482405377544637h2.162591743897792c.266416299914454,0,.482405377542818-.215989077631093.482405377542818-.482405377544637,0-.266416299915363-.216052872284308-.482405377543728-.482470153654504-.482405377543728ZM19.345082570167506,11.855311276302018h-3.292834802104153c-.266416299913544,0-.482405377541909.215989077629274-.482405377541909.482405377542818,0,.266416299917182.215989077628365.482405377546456.482405377541909.482405377546456h3.292834802104153c.266416299916273,0,.482405377545547-.215989077629274.482405377545547-.482405377546456,0-.266416299913544-.215989077629274-.482405377542818-.482405377545547-.482405377542818ZM14.71675668946591,11.855311276302018h-4.458003962533439c-.266416299916273,0-.482405377544637.215989077629274-.482405377544637.482405377542818,0,.266416299917182.215989077628365.482405377546456.482405377544637.482405377546456h4.458003962533439c.266416299913544,0,.482405377542818-.215989077629274.482405377542818-.482405377546456,0-.266416299913544-.215989077629274-.482405377542818-.482405377542818-.482405377542818ZM19.345082570167506,9.808111306997489h-5.618736940699819c-.266416299911725,0-.482405377540999.215989077628365-.482405377540999.482405377543728,0,.266416299914454.215989077629274.482405377543728.482405377540999.482405377543728h5.618736940699819c.266416299916273,0,.482405377545547-.215989077629274.482405377545547-.482405377543728.000064776111685-.266416299915363-.215989077629274-.482405377543728-.482405377545547-.482405377543728ZM11.907098689523082,9.808111306997489h-1.648346944046352c-.266416299916273,0-.482405377543728.215989077628365-.482405377543728.482405377543728,0,.266416299914454.215989077627455.482405377543728.482405377543728.482405377543728h1.648411720158947c.266416299913544,0,.482405377540999-.215989077629274.482405377540999-.482405377543728-.000064776109866-.266416299915363-.216052872284308-.482405377543728-.482470153653594-.482405377543728ZM11.753500785906908,18.53244377019746l-4.643698429998949-2.166321277665702v-.004181003636404l-1.265767444921948-.590463711016127v8.124671525636586c0,.177588620264942.036405647529136.347139113820049.102205419106213.501443665939405l5.807260455814685-5.865149199257758ZM7.109802355907959,15.301485859025888v-1.104000880910462l-.855143814817893.705084060998161.855143814817893.398916819912301ZM25.190482906705256,1.148033803240651h-9.481774270927417c-.266416299917182,0-.482405377544637.215988954945715-.482405377544637.482405377543728,0,.266416299915363.215989077627455.482405377543728.482405377544637.482405377543728h9.481837084123981c.266416299916273,0,.482405377544637-.215989077628365.482405377544637-.482405377543728s-.216053853740959-.482405377543728-.482470153654504-.482405377543728h.000001962913302ZM10.566396078215803,1.148033803240651h-.838484576373958c-.266416299916273,0-.482405377545547.215988954945715-.482405377545547.482405377543728,0,.266416299915363.215989077629274.482405377543728.482405377545547.482405377543728h.838484576373958c.266416299912635,0,.482405377541909-.215989077628365.482405377541909-.482405377543728s-.215989077629274-.482405377543728-.482405377541909-.482405377543728ZM7.747154648687683,1.148033803240651h-.838485067103647c-.266416299915363,0-.482405377546456.215988954945715-.482405377546456.482405377543728,0,.266416299915363.215989077631093.482405377543728.482405377546456.482405377543728h.838485067103647c.266416790645053,0,.482405868274327-.215989077628365.482405868274327-.482405377543728s-.215989077629274-.482405377543728-.482405868274327-.482405377543728ZM4.927977504546107,1.148033803240651h-.83854935249019c-.266416299916273,0-.482405377545547.215988954945715-.482405377545547.482405377543728,0,.266416299915363.215989077629274.482405377543728.482405377545547.482405377543728h.838485067103647c.266416299916273,0,.482405377544637-.215989077628365.482405377544637-.482405377543728s-.215924792241822-.482405377543728-.482341092158094-.482405377543728Z"/>
</svg>