<?xml version="1.0" encoding="UTF-8"?>
<svg id="Layer_1" data-name="Layer 1" xmlns="http://www.w3.org/2000/svg" viewBox="0 0 32 32">
  <defs>
    <style>
      .cls-1 {
        fill: #0f174b;
      }
    </style>
  </defs>
  <path class="cls-1" d="M20.81292054719961,23.355249865345286c-.161171656625811-.183148593571786-.146518874858884-.461533561521719.036629718713812-.615378827263157.183148593569058-.161171656623083.4615335615199-.146518874857065.615378827262248.036629718714721l.600728281197007.681311873808227,1.509144858175205-1.750900107409507c.161171656622173-.183148593572696.432230233689552-.197801375337804.615378827262248-.043956109597275.183148593570877.161171656623083.197801375337804.432230233689552.043956109595456.615378827262248l-1.838812326603147,2.131850076320006c-.175822202689233.197801375338713-.483512734172109.197801375338713-.659334936861342,0l-.923069358741486-1.054935451835263ZM22.527190935892577,19.098876103586917c2.183130341101787,0,3.948683230277311,1.772879280058987,3.948683230277311,3.948683230276401,0,2.183130341100878-1.772879280058987,3.956009621159865-3.948683230277311,3.956009621159865-2.183130341099968,0-3.956009621158955-1.772879280058987-3.956009621158955-3.956009621159865,0-2.175806185917281,1.772879280058987-3.948683230276401,3.956009621158955-3.948683230276401ZM24.702997121812587,20.879079538828591c-1.201454326695966-1.201454326693238-3.142829418560723-1.201454326693238-4.344283745253051,0-1.201454326694147,1.201454326694147-1.201454326694147,3.142829418558904,0,4.344283745253051,1.201454326692328,1.201454326693238,3.142829418557085,1.201454326693238,4.344283745253051,0,1.201454326692328-1.201454326694147,1.194127935808865-3.142829418558904,0-4.344283745253051ZM24.739626840526398,28.681209625005067c-.197801375339623-.021976936948704-.373623578028855-.073259437429442-.534792998951161.073259437428533l-.813180202600051.747247156054982c-.490839125055572.454209406339032-1.238084045407959.454209406339032-1.728923170461712,0l-.813180202600051-.747247156054982c-.161171656625811-.153845265741438-.336993859313225-.1025627652607-.534792998951161-.073259437428533v3.216088855987437l2.007308138410735-1.091565170550894c.139192483973602-.073259437428533.300364140599413-.065933046545979.424903842807907.007326390883463l1.999981747527272,1.08423877966743v-3.216088855987437h-.007324155181777ZM19.435644017814411,28.783772390264858c-.666661327741167.080585828311996-1.274713764121771-.366297187144482-1.399255702030132-1.018305733121451l-.212451921403044-1.08423877966743c-.021976936950523-.124541937909271-.087912219196369-.212451921403044-.197801375339623-.271060812766336l-.959699077459845-.534792998951161c-.586075499430081-.329667468429761-.820506593482605-1.047609060952709-.534792998949342-1.648337342149716l.461533561521719-1.003655187056211c.051282500480738-.109889156143254.051282500480738-.219778312286508,0-.336993859313225l-.461533561521719-1.003655187055301c-.278384967949023-.608052436379694-.051282500480738-1.318669873719955.534792998949342-1.648337342149716l.959699077459845-.534792998950252c.109889156143254-.058606655663425.175822202689233-.146518874858884.197801375339623-.271060812767246l.212451921403044-1.08423877966743c.131866093091958-.652008545976969.739920765172428-1.098891561433447,1.399255702030132-1.018305733121451l1.098891561434357.131866093091958c.124541937908361.014652781766017.227104703169971-.014652781766017.322341077548117-.10256276525979l.813180202600051-.747247156054982c.124541937908361-.117215547026717.271060812765427-.20512553052049.424903842806089-.263734421884692v-.857135194347393h-6.915690446146073c-1.509144858175205,0-2.7399025126997-1.230758772375339-2.7399025126997-2.732577239667989v-5.245376167047652H3.838709677421321v22.351454806691436h15.596934340393091v-1.076912388783967ZM23.611431951261693,17.99265591557014l-.813180202600051-.747247156054982c-.153845265742348-.139192483974512-.39560051497574-.139192483974512-.542119389834625,0l-.813180202600051.747247156054982c-.285711358832486.263734421884692-.637357999910819.3809499689105-1.01830573312327.329667468430671l-1.091565170549075-.131866093091958c-.2051255305214-.021976936948704-.39560051497574.109889156143254-.439556624573015.315014686663744l-.212451921403044,1.08423877966743c-.073259437431261.38094996890959-.29303774971595.681311873808227-.630031609029174.864460467380013l-.96702546834058.549445780717178c-.183148593572696.10256276525979-.256408031001229.329667468429761-.168495811805769.520142452885011l.4615335615199,1.003655187055301c.161171656623992.351644405379375.161171656623992.717941592522948,0,1.06958823360219l-.4615335615199,1.003655187056211c-.087912219195459.19047498445434-.014652781766927.417579687624311.168495811805769.520142452885011l.959699077458936.534792998950252c.336993859311406.19047498445525.556772171599732.490839125053753.630031609027355.864460467380923l.212451921403044,1.08423877966743c.036629718713812.20512553052049.227104703169971.336993859312315.439556624573015.315014686663744l1.091565170550894-.131866093091958c.3809499689105-.043956109597275.732594374288965.073259437428533,1.018305733121451.329667468429761l.813180202600051.747247156054982c.153845265742348.139192483974512.39560051497574.139192483974512.542119389834625,0,1.377276529381561-1.27471376412268,1.062261842716907-1.17215099886198,2.923051106270577-.952372686575472.205125530523219.021976936947794.39560051497574-.109889156143254.439556624573015-.315014686663744l.212451921404863-1.08423877966743c.073259437429442-.3809499689105.29303774971595-.681311873808227.630031609029174-.864460467380013l.959699077458936-.534792998951161c.183148593570877-.10256276525979.256408031000319-.329667468429761.168495811805769-.520142452885011l-.461533561523538-1.003655187056211c-.161171656622173-.351644405377556-.161171656622173-.717941592522948,0-1.06958823360128l.461533561523538-1.003655187056211c.08791221919455-.19047498445525.014652781765108-.417579687625221-.168495811805769-.520142452885011l-.959699077458936-.534792998950252c-.336993859313225-.190474984456159-.556772171599732-.490839125054663-.630031609029174-.864460467380923l-.212451921404863-1.08423877966743c-.043956109597275-.20512553052049-.227104703169971-.336993859312315-.439556624573015-.315014686663744l-1.098891561432538.131866093091958c-.373623578028855.043956109597275-.725267983407321-.073259437429442-1.003655187056211-.336993859313225l.000002235701686-.000002235700777ZM20.080326172907007,2.827952367792022c-1.816833153954576,0-2.732576121814418,2.212434786782069-1.450535966809184,3.494474941788212.798527420834944.798527420834034,2.087893966723641.805853811716588,2.893747778440229,0,1.289366545888697-1.282040155006143.373623578027036-3.494474941788212-1.443211811631045-3.494474941788212ZM18.007084987950293,2.805974312993385c1.142847671031632-1.142847112105301,2.996310543701838-1.142847112105301,4.13915821473347,0,1.076914624485653,1.0769135066339,1.150174061913276,2.791184454255017.168495811805769,3.948683789201823,1.838812326604966.388274683017698,3.208762465104883,2.036612025168324,3.208762465104883,3.956010180084377v1.604381232552441c0,.241756367085145-.197801375339623.439556624573015-.439556624573015.439556624573015h-10.014564872958545c-.241756367085145,0-.439556624573015-.19780025748787-.439556624573015-.439556624573015v-1.604381232552441c0-1.919397037067029,1.36995125634985-3.567734379215835,3.208763582954816-3.956009621158955-.974349623523267-1.157499334946806-.901090186094734-2.871769723642501.168495811805769-3.948683789201823l.000002235699867-.000000558925422ZM21.25980356265427,7.553186081954664c-.358970796261929.161170538774059-.761897702119313.249081640118675-1.186803780627088.249081640118675s-.820506593483515-.087911101344616-1.186803780628907-.249081640118675h-.219778312288327c-1.736249561344266,0-3.164807473356632,1.421232638980655-3.164807473356632,3.164807473357541v1.164824607979426h9.135451623811605v-1.164824607979426c0-1.736248443494333-1.428559029864118-3.164807473357541-3.164808591209294-3.164807473357541h-.212449685701358ZM24.981382089759791.102701519007496h-9.802112951552772c-1.018305733121451,0-1.86078926355367.835157698474177-1.86078926355367,1.853463711058794v10.791115636306131c0,1.018305733121451.835157139548755,1.85346399052105,1.86078926355367,1.85346399052105h9.809437106736368c1.018305733121451,0,1.853462872670207-.835157139549665,1.853462872670207-1.85346399052105V1.9634919004111c0-1.018306292045963-.835157139548755-1.860789822478182-1.86078926355367-1.860789822478182l.000002235699867-.000000558925422ZM12.549255781650572,22.952320723785306c-.241756367086055,0-.439556624573925-.197801375337804-.439556624573925-.439556624573015s.19780025748787-.439556624573015.439556624573925-.439556624573015h2.600710028724279c.241756367085145,0,.439556624573925.197801375337804.439556624573925.439556624573015s-.19780025748878.439556624573015-.439556624573925.439556624573015h-2.600710028724279ZM12.549255781650572,25.2526666119129c-.241756367086055,0-.439556624573925-.197801375338713-.439556624573925-.439556624573015,0-.241755249235212.19780025748787-.439556624573925.439556624573925-.439556624573925h2.161153404151264c.241756367086055,0,.439556624573015.197801375338713.439556624573015.439556624573925,0,.241755249234302-.197800257486961.439556624573015-.439556624573015.439556624573015h-2.161153404151264ZM12.549255781650572,27.553012500038676c-.241756367086055,0-.439556624573925-.197801375337804-.439556624573925-.439556624573015s.19780025748787-.439556624573015.439556624573925-.439556624573015h3.684949926241643c.241755249235212,0,.439556624573015.197801375337804.439556624573015.439556624573015s-.197801375337804.439556624573015-.439556624573015.439556624573015h-3.684949926241643ZM12.549255781650572,20.651972599957844c-.241756367086055,0-.439556624573925-.197801375337804-.439556624573925-.439556624573015s.19780025748787-.439556624573015.439556624573925-.439556624573015h2.263716169411964c.241756367085145,0,.439556624573015.197801375337804.439556624573015.439556624573015s-.19780025748787.439556624573015-.439556624573015.439556624573015h-2.263716169411964ZM12.549255781650572,18.351626711832068c-.241756367086055,0-.439556624573925-.197801375338713-.439556624573925-.439556624573015,0-.241755249235212.19780025748787-.439556624573925.439556624573925-.439556624573925h4.336958472218612c.241755249235212,0,.439556624573015.197801375338713.439556624573015.439556624573925,0,.241755249234302-.197801375337804.439556624573015-.439556624573015.439556624573015h-4.336958472218612ZM9.472359409637647,26.534704531217358c0-.241755249235212.19780025748787-.439556624573925.439556624572106-.439556624573925.241756367085145,0,.439556624573925.197801375338713.439556624573925.439556624573925,0,.600728281197007-.49083800720291,1.091565170549984-1.091565170549984,1.091565170549984h-2.673969466154631c-.600727163346164,0-1.091565729474496-.490839125053753-1.091565729474496-1.091565170549984v-2.673969466153721c0-.600728281197007.49083800720291-1.091565170550894,1.091565729474496-1.091565170550894h2.336975606841406c.241756367085145,0,.439556624573015.197801375338713.439556624573015.439556624573015,0,.241755249235212-.19780025748787.439556624573925-.439556624573015.439556624573925h-2.336975606841406c-.117215547025808,0-.212451921403044.095236374377237-.212451921403044.212451921403954v2.673969466153721c0,.117215547026717.095237492226261.212451921403044.212451921403044.212451921403044h2.673969466154631c.109889156142344,0,.212451921403954-.095236374376327.212451921403954-.212451921403044ZM10.629858744582634,23.113487909008654c.168496929656612-.175822202690142.446883015457388-.175822202690142.615378827263157-.007326390883463.175822202689233.168495811806679.175822202689233.446883015456478.007326390882554.622705218145711l-2.24906450549679,2.322325060776166c-.197800257486961.20512553052049-.534794116800185.168495811805769-.68863826469078-.073259437429442l-.520142452885011-.827830748666202c-.124540820059337-.20512553052049-.065933046545979-.476186343287736.139192483974512-.600728281197007.205126648370424-.131866093091958.476186343287736-.065933046545979.600727163347074.139192483975421l.219778312286508.351644405377556,1.875442045318778-1.926722310098739ZM9.472359409637647,19.780183505994501c0-.241755249235212.19780025748787-.439556624573015.439556624572106-.439556624573015.241756367085145,0,.439556624573925.197801375337804.439556624573925.439556624573015,0,.600728281197007-.49083800720291,1.091565170549984-1.091565170549984,1.091565170549984h-2.673969466154631c-.600727163346164,0-1.091565729474496-.490839125053753-1.091565729474496-1.091565170549984v-2.673969466154631c0-.600728281197007.49083800720291-1.091565170549984,1.091565729474496-1.091565170549984h1.919397037066119c.241756367086055,0,.439556624573925.197801375338713.439556624573925.439556624573925,0,.241755249234302-.19780025748787.439556624573015-.439556624573925.439556624573015h-1.919397037066119c-.117215547025808,0-.212451921403044.095236374377237-.212451921403044.212451921403044v2.673969466154631c0,.117215547025808.095237492226261.212451921403954.212451921403044.212451921403954h2.673969466154631c.109889156142344,0,.212451921403954-.095236374378146.212451921403954-.212451921403954ZM10.629858744582634,9.421299500691021c.168496929656612-.175822202689233.446883015457388-.175822202689233.615378827263157-.007326390883463.175822202689233.168496929656612.175822202689233.446883015456478.007326390882554.615378827263157l-2.24906450549679,2.322323942925323c-.197800257486961.205126648370424-.534794116800185.168496929655703-.68863826469078-.073259437429442l-.520142452885011-.827831866516135c-.124540820059337-.205126648371333-.065933046545979-.476186343287736.139192483974512-.600727163347074s.476186343287736-.065933046545979.600727163347074.139192483974512l.219778312286508.351645523229308,1.875442045318778-1.919395919216186ZM10.629858744582634,16.109886361517056c.168496929656612-.175822202688323.446883015457388-.175822202688323.615378827263157-.007326390882554.175822202689233.168496929656612.175822202689233.446881897605635.007326390882554.615379945113091l-2.24906450549679,2.322325060775256c-.197800257486961.2051255305214-.534794116800185.168495811806679-.68863826469078-.073259437428533l-.520142452885011-.827830748666202c-.124540820059337-.20512553052049-.065933046545979-.476186343287736.139192483974512-.600728281197007s.476186343287736-.065933046545979.600727163347074.139192483974512l.219778312286508.351644405378465,1.875442045318778-1.919397037067029ZM9.472359409637647,13.02566471647151c0-.241756367085145.19780025748787-.439556624573015.439556624572106-.439556624573015.241756367085145,0,.439556624573925.19780025748787.439556624573925.439556624573015,0,.600727163347074-.49083800720291,1.091565170550894-1.091565170549984,1.091565170550894h-2.673969466154631c-.600727163346164,0-1.091565729474496-.49083800720382-1.091565729474496-1.091565170550894v-2.673969466153721c0-.600727163347074.49083800720291-1.091565170549984,1.091565729474496-1.091565170549984h2.102545630638815c.241756367086055,0,.439556624573925.19780025748787.439556624573925.439556624573015s-.19780025748787.439556624573015-.439556624573925.439556624573015h-2.102545630638815c-.117215547025808,0-.212451921403044.09523749222808-.212451921403044.212451921403954v2.673969466153721c0,.117215547026717.095237492226261.212451921403954.212451921403044.212451921403954h2.673969466154631c.109889156142344,0,.212451921403954-.09523749222717.212451921403954-.212451921403954Z"/>
</svg>