<?xml version="1.0" encoding="UTF-8"?>
<svg id="Layer_1" data-name="Layer 1" xmlns="http://www.w3.org/2000/svg" viewBox="0 0 32 32">
  <defs>
    <style>
      .cls-1 {
        fill: #fffffe;
      }
    </style>
  </defs>
  <path class="cls-1" d="M2.929941507253716,20.769222846352932c-.966802407087926.707523579732879-1.182135670484058,2.068859494360368-.478518363103831,3.040544741887061.408937886836611.564944638888846,1.070074482389828.902104771259474,1.76832066528641.902104771259474.461672563586944,0,.903569623392286-.143311366908165,1.278327627149338-.414797295363314.005126982462571-.003662130331577.010253964924232-.007324260659516.015380947385893-.011230533011258l5.096708851102449-3.933372116311148c.228272790562187-.166993143042419.419191851759933-.373537293649861.567874343152653-.614017185311241l3.203387470555754-4.747585759652793,1.119391170832387.78857873103334c.040771717673124.055420238993975.047607694287763.114014324270101.047607694287763.146973497237923,0,.038330297453285-.009277396835387.112549472140017-.072021896487058.175293971791689l-3.24489161429392,3.244647472272845c-.412111733122401.412111733121492-.639163813574669.959966430471468-.639163813574669,1.54297757898712,0,.582767006495487.227052080452268,1.130621703845463.639163813574669,1.542733436966955.411867591100417.412111733121492.959966430471468.638919671551776,1.542733436966046.638919671551776.582767006495487,0,1.130621703844554-.226807938430284,1.542733436967865-.638919671551776l3.4062694908298-3.406269490831619c.869633882334711-.869633882333801,1.348640529483419-2.027843634663441,1.348640529483419-3.260760845721961,0-1.119147028810403-.395754217648573-2.175793699991118-1.119147028810403-3.01198012531313l3.527363933738343-3.527363933737433c.172608409548047-.172608409549866.325441315314492-.361818476594635.458010433256277-.564212212824714.021240355912596,0,.042724853848085.001220710111738.063965209761591.001220710111738.996587733770866,0,1.991466473387845-.180665096273515,2.925797991551008-.539553868604344,1.299567983062843-.499026292951385,2.459730871567444-1.331794729963804,3.355732092277321-2.407728620883063l1.801035696234067-2.163342456868122c.334718712150789-.402346052245775.492922742401788-.910893884052712.445315048114026-1.432137101006447-.047607694288672-.521243216951916-.295411846610477-.992681461417305-.69751375683154-1.327400173569913-.83032701679349-.691410206281944-2.06837121031549-.578128308075975-2.759537274574541.252198708720243l-1.341804552866961,1.611825629186569c-.022216924000531-.6733436966515-.289064154037078-1.33985141669109-.801762400220468-1.852549662871752-1.071783476544624-1.072027618567517-2.815934081654632-1.072027618567517-3.88796170022033,0l-.446291616201052.446291616199233c-.519045938754971.519290080776045-.805180388529152,1.209723718971873-.805180388529152,1.943858779100992,0,.041260001717092.001220710109919.08227586141038.003173846284881.123047579083504-.241944743793283-.056152665058107-.488284043983185-.086182133763941-.735355770239039-.090576690159651-.020996213890612-.002197278197855-.042236569805027-.003173846283971-.063965209761591-.003173846283971h-2.984880360872012c-2.149914645660829,0-4.314721954662673.483157061520615-6.260533869937717,1.397224791857298-2.598159398037751,1.220465967937344-5.487336086289361,1.865000905996567-8.358446264913255,1.865000905996567-.016113373451844.000244142021984-.032470888924763.0012207101081-.048584262376608,0-.180176812230457,0-.351808653690568.077881305014671-.470461676378363.213624269241336-.119141306731763.135987106250468-.173340835613999.316896344545967-.148926633414703.496096588687578l.215089121374149,1.573251189716757c.484133629610369,3.541524171014316,2.667739874304971,6.569373527756397,5.859896811849467,8.149216552066719l-.108643199787366.16772556910837-4.758328008620992,3.683614827812562ZM10.134328434211056,19.050707153553958c-.005615266505629.008056686723648-.010986390989274.016357515472919-.016113373450935.024658344218551-.064697635827542.106445921590421-.148682491392719.197510895794039-.249513146475692.270753502391017-.005126982461661.003662130327939-.010253964924232.0075684026815-.015380947385893.011230533011258l-5.095243998969636,3.932151406201228c-.158692314294967.112793614158363-.344484393031053.172364267524244-.538333158492605.172364267524244-.298585692896268,0-.581302154361765-.144043792972298-.755863700086593-.385500252723432-.30127125513809-.416018005473234-.208009002736617-.999761580058475.20825314475951-1.301032835193837.005371124483645-.003906272353561.01074224896729-.007812544705303.015869231429861-.011962959079028l4.849881266867669-3.754660156211685c.05566438101414-.042968995870979.103516217324795-.095215388577344.141846514777171-.154541899921242l3.238299779700355-5.001249320503121c.219727819792752.416018005473234.53540345422789.779789618241921.930425245810511,1.057867381290635l.510989252029503.36010948243711-3.225116110513227,4.779812506558301ZM17.839206506252594,18.141766405677117l-3.406025348807816,3.4062694908298c-.176026397856731.175782255833838-.41015859694653.272706638566888-.658939317357181.272706638566888-.248780720408831,0-.48291291949954-.09692438273305-.658939317355362-.272706638566888-.175782255833838-.176026397855821-.272706638565069-.410158596945621-.272706638565069-.658939317354452,0-.24878072041065.096924382731231-.482912919502269.272706638565069-.658695175334287l3.24489161429392-3.244891614294829c.282716461466407-.282716461466407.438234929475584-.658939317354452.438234929475584-1.059332233420719,0-.400392916068085-.155518468009177-.776615771959769-.438234929475584-1.059088091402373-.025390770287231-.025390770286322-.052734676750333-.048340120354624-.082031719389306-.069092192223252l-2.709976444109998-1.909190611975646c-.427736822529369-.301271255139-.69873446694055-.772953641628192-.7436565989874-1.294196858580108-.044677990023956-.521243216953735.141602372756097-1.03223246898051.511721678095455-1.402107632298794l.651370914673862-.651615056696755,3.646505240471015,3.646505240471015c.014404379297048.014404379298867.029541184660957.02783219050616.045166274068833.04052757565114l.159913024403977.160157166425051c.63354854706904.63354854706995.982671638516877,1.47779165911561.982671638516877,2.376722584091112,0,.899175066995667-.348878949425853,1.743174037022982-.982671638516877,2.376966726113096ZM18.078465687804965,11.859259753760853l-2.761490410749502-2.761490410750412c-.014404379297957-.014404379298867-.029541184661866-.02783219050616-.045166274069743-.040771717673124l-.400392916066266-.400148774044283,3.519795531056843-3.519795531055934c.593020971418809-.593020971416991,1.435555089312402-.78735802092524,2.192639499508914-.584476000649374-.116211602467956.035888877233447-.230225926738058.082764145454348-.340333978656417.140869946690145-.462893273696864.244386164013122-.802738968309313.654300618936759-.957280868230555,1.154547621999882-.154297757898348.50000286103932-.104736927433805,1.030279332804639.139649236580226,1.493172606500593.244386164013122.462649131675789.654300618937668.802738968308404,1.154303479976988.957036726209481.279054331136649.086182133760303.562259076647024.15625089407331.847416958334179.211915275089268l-3.349140257684667,3.349140257683757ZM27.232570802389091,4.007896468523541l1.801035696234067-2.163586598891925c.250245572541644-.300782971093213.698490324918566-.341798830786502.999029153990705-.091309116225602.145508645107839.121094442909452.235108767178644.291993858303613.252442850739499.480715641304414.017334083562673.188477640976998-.040039291606263.372560725556468-.161133734514806.518313512686291l-1.801279838255141,2.16334245687176c-.759281688394367.912358736182796-1.742441610955211,1.617929179739804-2.84303384609575,2.040783161830404-1.439461361663234.552981679811637-3.048357286590544.605228072518003-4.530543502102773.147461781281891-.180909238295499-.055908523036123-.329347587667144-.178956102119628-.41772699962803-.346437529206014-.08862355398287-.167481427088205-.106445921588602-.359377056371159-.050537398552478-.54053043669046.055908523037033-.180909238295499.178956102120537-.329347587667144.346437529206924-.417971141650924.103516217323886-.054687812926204.216309831484978-.08227586141038.330324155755079-.08227586141038.070312902333171,0,.14111408871122.010498106945306.210206280934472.031982604879886.337648416414595.104248643392566.679447247203825.174561545725737,1.02149022001413.212891843179023.054931954948188.012939527165145.111572904050263.018554793670774.168457995174322.016113373449116.484866055676321.03930686554304.968755543263796.01391609525308,1.439461361664144-.072754322551191.059570653365881-.010009822903157.118408880665811-.021728639958383.176758823921773-.035400593189479.003417988307774-.000732426065952.006835976616458-.001464852131903.010009822901338-.002197278197855.012451243122086-.002929704263806.024658344222189-.005615266505629.036865445321382-.008789112793238,1.154303479977898-.262940957682076,2.217786127773252-.896977788795994,3.011735983291146-1.850352384675716ZM22.039914136644256,3.193926967203879c0-.400392916066266.156006752053145-.776859913978114.43921149756352-1.060064659488489l.446291616201052-.446291616201052c.292238000324687-.292238000325597.676029258896051-.438234929475584,1.060064659488489-.438234929475584.383791258571364,0,.767582517142728.145996929149987,1.059820517467415.438234929475584.283204745510375.283204745510375.43921149756352.659671743420404.43921149756352,1.06006465948667,0,.400392916068085-.156006752053145.776859913978114-.43921149756352,1.059820517468324l-.446291616201052.446535758221216c-.210938707001333.210938707003152-.469973392334396.344484393031962-.742191746855497.403322620331892-.018554793671683.003662130331577-.037109587342457.0075684026815-.05566438101414.011230533011258-.459719427411073.081055151300461-.949468323526162-.052734676750333-1.307380527766327-.401125342130399-.004638698418603-.004882840441496-.009033254813403-.009765680881173-.01391609525399-.014404379298867-.00634769257158-.006591834595383-.013183669187129-.012451243121177-.019775503780693-.018798935692757-.270753502389198-.280763325292355-.420168419848778-.648929494454933-.420168419848778-1.040289155707796ZM3.175548381377666,8.599231334103024l-.11962959077664-.874516722775297c2.832779881172428-.092041542289735,5.661409347969311-.769047369272812,8.223924010796509-1.972911679715253,1.780771908408497-.836430567343996,3.761740274851036-1.278571769173141,5.729036688061569-1.278571769173141h.278321905070698l-3.741476487025466,3.741476487028194c-.000976568087935.000976568086116-.001708994153887.001953136174052-.002685562242732.002929704261987l-1.090582412237382,1.090826554260275c-.476809368949944.476809368950853-.77466263578026,1.09107069628044-.859379917411388,1.746347883306953l-3.111834212308167,4.805935702910574c-2.890153256339545-1.376961004034456-4.871609906826052-4.085472596012551-5.305694421927001-7.261516160104293Z"/>
  <path class="cls-1" d="M7.10867635566683,24.469195189640232l-4.792752033722536,4.792752033721627c-.244142021992047.244142021992957-.244142021992047.63989623964153,0,.884038261632668.122071010995569.122071010995569.281984035400455.183106516493353.441897059805342.183106516493353.159913024403977,0,.320070190831757-.061035505497784.441897059805342-.183106516493353l4.792752033722536-4.792752033721627c.244142021991138-.244142021992957.244142021991138-.63989623964153,0-.884038261632668-.243897879970064-.243897879969154-.639652097619546-.243897879969154-.883794119610684,0Z"/>
  <path class="cls-1" d="M1.086913383237516,30.749992847402609c-.164551693020258,0-.325685487140618.066650772003413-.44189703000302.183106516493353-.116455789194333.116211602467956-.183350673417408.277589479006565-.183350673417408.441897059807161s.066894884223075.325685457335567.183350673417408.441897059803523c.116211542862402.116211602467956.277345336982762.183106516493353.44189703000302.183106516493353.164307580800596,0,.325441315314492-.066894914025397.441897059805342-.183106516493353.116211602467956-.116211602467956.183106516493353-.277589479002927.183106516493353-.441897059803523s-.066894914025397-.325685457339205-.183106516493353-.441897059807161c-.11645574449085-.116211602466137-.277589479004746-.183106516493353-.441897059805342-.183106516493353Z"/>
  <path class="cls-1" d="M12.395571841900164,24.469195189640232c-.243897879970064-.243897879969154-.639652097618637-.243897879969154-.883794119610684,0l-3.104265809626668,3.104265809624849c-.244142021991138.244142021992957-.244142021991138.63989623964153,0,.884038261634487.122071010996478.12207101099375.281984035401365.183106516493353.441897059806251.183106516493353.159913024403977,0,.319826048808864-.061035505499603.441897059804433-.183106516493353l3.104265809626668-3.104265809626668c.244142021992047-.244142021992957.244142021992047-.63989623964153,0-.884038261632668Z"/>
  <path class="cls-1" d="M30.773118405316382,13.569230475790391l-5.631868163309264,1.294441000600273c-.221436813945729.050781540576281-.397951495846428.218018825640684-.460695995498099.436525935321697-.062744499652581.218507109684651-.00195313617678.453615876862386.158692314294967.614505469353389l.424074692199611.423830550180355-14.589683092211999,14.589927234232164c-.244142021992047.244142021992957-.244142021992047.639896239639711,0,.884038261632668.121826868973585.121826868973585.281984035400455.183106516493353.441897059805342.183106516493353s.320070190831757-.061279647519768.441897059805342-.183106516493353l15.031824294038415-15.031824294039325c.244142021992047-.244142021989319.244142021992047-.639896239639711,0-.884038261632668l-.067627340091349-.067627340091349,3.558858254575171-.818119915693387-.817875773672313,3.558858254575171-.067627340091349-.067627340093168c-.244142021992047-.243897879969154-.63989623964062-.243897879969154-.884038261632668,0l-10.807434887514319,10.807679029536303c-.244142021992047.243897879970973-.244142021992047.639652097619546,0,.883794119610684.243897879970064.244142021992957.639652097618637.244142021992957.883794119610684,0l10.365537827708977-10.365537827707158.424074692199611.424074692198701c.160645450469929.160645450469019.395754217648573.221680955968623.61450546935248.158692314293148.218507109683742-.062744499649853.385744394748144-.239015039529477.436525935321697-.460695995498099l1.294441000601182-5.631868163307445c.048340120353714-.209717996891413-.014892663341016-.429689958706149-.167237285064402-.582034580429536-.152100479700493-.152100479699584-.372072441515229-.215333263395223-.582034580427717-.166993143042419Z"/>
  <path class="cls-1" d="M16.326990822035441,30.7455982910069c-.165040006866548,0-.325685457337386.066162487959446-.442629485871294.182374090427402-.116211602467956.116944028533908-.182374090428311.277589479006565-.182374090428311.442629485871294,0,.164307580802415.066162487960355.324953031271434.182374090428311.441897059805342.116944028533908.116211602467956.278321905070698.183106516493353.442629485871294.183106516493353s.324953031271434-.066894914025397.441897059804433-.183106516493353c.116211602468866-.116944028533908.183106516494263-.277589479002927.183106516494263-.441897059805342,0-.165040006864729-.066894914025397-.325685457337386-.183106516494263-.442629485871294-.116211602467956-.116211602467956-.277589479003836-.182374090427402-.441897059804433-.182374090427402Z"/>
</svg>