<?xml version="1.0" encoding="UTF-8"?>
<svg id="Layer_1" data-name="Layer 1" xmlns="http://www.w3.org/2000/svg" viewBox="0 0 32 32">
  <defs>
    <style>
      .cls-1 {
        fill: #fff;
      }
    </style>
  </defs>
  <g id="_25157_-_Trust" data-name="25157 - Trust">
    <g>
      <path class="cls-1" d="M23.216514742517575,24.644504273949678c-.076163033249941,0-.152326066499882,0-.236951659002443-.008462559248983-.093088151748816-.008462559249892-.177713744251378-.033850236999569-.253876777501318-.093088151750635l-4.865971568791792-3.385023700028796c-.228489099751641-.160788625752502-.279264455252815-.473903318004886-.126938388750204-.693929858505726.160788625749774-.22848909975437.473903318002158-.279264455252815.693929858505726-.126938388751114l4.739033180039769,3.308860666778855c.482365877254779.008462559248073.812405688007857-.101550711001437.964731754510467-.330039810753078.321577251500457-.465440758754085.033850236999569-1.421709954014659-.126938388752933-1.810987679516984-.829330806507642-.913956399007475-3.038058770776843-3.181922278027741-4.112803795535001-3.596587681281562-1.260921328261247-.490828436503762-3.62197535903033-2.386441708520579-4.451306165539791-3.071909007776412-1.074745024758158.651617062256264-2.031014220016004.583916588254397-2.564155452771956.456978199504192-.854718484256409,1.396322276262254-1.751749764765918,2.124102371768458-2.665706163773393,2.16641516801883-1.049357347008481.042312796250371-1.658661613014374-.837793365757534-1.684049290764051-.871643602757104-.093088151750635-.126938388752933-.110013270251329-.296189573753509-.059237914751066-.44851564025339l1.692511850014853-4.840583891043025c.093088151750635-.26233933675212.37235260700345-.397740284753127.634691943756479-.304652133001582.26233933675212.093088151750635.397740284753127.37235260700345.304652133002492.63469194375466l-1.599423698263308,4.56131943579021c.143863507250899.126938388750204.380815166253342.279264455250086.66854218075423.270810934916881.600841706756-.033850236144644,1.328621802261296-.744705195193092,2.039476779268625-2.014089050636358.126938388751114-.228489093979988.423127962504623-.32157724337867.660079621506156-.203101416871505.033850237000479.016925118073232,1.057819906259283.482365865068459,2.301816116018927-.440053069888563.18617630350127-.135400944578578.440053081004407-.126938385541507.617766825255785.016925118074141.854718484256409.727780077121679,3.32578578527955,2.708018891613392,4.459768724788773,3.139609402464885,1.523260665013368.592379132538554,4.239742184287024,3.579662472350719,4.544394317289516,3.926627392837872.033850236999569.042312795181715.059237914751066.08462559036434.084625592499833.126938385544236.084625592500743.186176298800092.78701801025727,1.810987633767581.067700474001867,2.851882395230859-.330039810753078.524669821647876-.922418958258277.778546599149195-1.726362087016241.778546599149195Z"/>
      <path class="cls-1" d="M21.617091044254266,27.589474892974977c-.330039810753078,0-.626229384504768-.093088151748816-.795480569507163-.186176303499451-.016925118498875-.008462559250802-.042312796250371-.025387677751496-.059237914749247-.033850237002298l-4.205891947287455-3.071909007776412c-.220026540501749-.160788625749774-.270801896002013-.473903318003977-.11001327025042-.702392417754709.160788625750683-.220026540502658.473903318003067-.270801896002013.702392417754709-.110013270251329l4.155116591787191,3.038058770776843c.076163033249941.033850236999569.363890047752648.135400948001006.592379147505198-.008462559250802.18617630350127-.118475829500312.626229384504768-.583916588254397.609304266005893-2.369516590019884,0-.279264455251905.220026540500839-.499290995753654.499290995753654-.507753555004456h.008462559250802c.270801896002013,0,.499290995753654.220026540501749.499290995753654.499290995754563.016925118500694,1.726362087013513-.33850237000388,2.784181993272796-1.091670143258852,3.241160192776988-.270801896002013.152326066501701-.550066351254827.211563981250947-.803943128757965.211563981250947Z"/>
      <path class="cls-1" d="M19.746865449988945,30.14516778649886c-.473903318004886,0-1.023969669259714-.143863507251808-1.650199053764482-.440053081003498-.025387677751496-.008462559249892-.050775355500264-.025387677751496-.07616303325176-.04231279625219l-3.224235074278113-2.217190523517274c-.228489099749822-.15232606650261-.287727014501797-.465440758754994-.126938388751114-.693929858506635.152326066501701-.228489099751641.465440758754085-.287727014502707.693929858506635-.126938388750204l3.190384837278543,2.191802845767597c.55852891050472.253876777504047,1.286309006010924.482365877253869,1.667124172262447.18617630350218.465440758754994-.355427488504574.423127962504623-1.472485309513104.33850237000388-1.963313746018684-.050775355500264-.270801896000194.126938388751114-.533141232754133.397740284754946-.583916588254397.270801896002013-.050775355500264.533141232754133.126938388752933.583916588254397.397740284754946.042312796250371.211563981250947.355427488502755,2.107177253267764-.71085497700733,2.936508059775406-.29618957375078.236951659002443-.660079621504337.355427488502755-1.083207584008051.355427488502755Z"/>
      <path class="cls-1" d="M16.471855020209659,31.930767788263438c-.473903318004886,0-.829330806507642-.14386350724908-.854718484256409-.152326066501701-.008462559250802-.008462559250802-.025387677751496-.008462559250802-.033850237002298-.016925118498875l-3.385023700028796-1.692511850013943c-.245414218252336-.126938388751114-.346964929251953-.423127962504623-.220026540500839-.668542180756958.126938388750204-.245414218251426.423127962503713-.346964929252863.66854218075423-.220026540501749l3.359636022280029,1.684049290764051c.084625592499833.025387677751496.592379147504289.18617630350127,1.023969669259714-.067700474000048.397740284752217-.236951659002443.66854218075423-.78701801025727.778555451006469-1.599423698263308.033850236999569-.270801896002013.287727014502707-.465440758754085.566991469755521-.423127962503713.270801896002013.033850236999569.465440758752266.287727014502707.423127962501894.566991469752793-.160788625750683,1.150908058010828-.592379147505198,1.929463509017296-1.277846446761032,2.327203793772242-.355427488501846.194638862752072-.727780095505295.262339336751211-1.049357347008481.262339336751211Z"/>
      <path class="cls-1" d="M24.43512327452936,21.572595266173266c-.211563981252766,0-.406202844003019-.135400948001006-.473903318004886-.346964929252863-.084625592499833-.262339336751211.059237914751066-.541603792004025.321577251503186-.626229384503858,1.844837916515644-.600841706756,2.741869197022424-1.447097631764336,3.173459718777849-2.056401897770229.211563981250947-.29618957375078.228489099751641-.693929858505726.033850236999569-1.015507110008912l-1.210145972759165-2.064864457015574c-.143863507251808-.236951659002443-.059237914751066-.541603792005844.177713744251378-.685467299257652.236951659002443-.135400948001006.541603792004025-.059237914751066.685467299255833.177713744251378l1.210145972760984,2.064864457017393c.389277725502325.660079621507066.355427488502755,1.480947868765725-.084625592502562,2.098714694019691-.516216114252529.727780095506205-1.574036020511812,1.743287205515117-3.681213273782305,2.42875450477095-.042312796250371.016925118500694-.101550710999618.025387677749677-.152326066499882.025387677749677Z"/>
      <path class="cls-1" d="M3.143324201343603,24.906843610702708c-.389277725502325,0-.702392417756528-.110013270251329-.947806636007044-.338502370002971-.67700474000776-.63469194375557-.431590521754515-1.887150712766925-.059237914751066-2.919582941274712l-1.667124172265176-1.937926068267188c-.558528910505629-.651617062256264-.626229384504768-1.582498579764433-.160788625750683-2.310278675270638l4.155116591785372-6.507708063305472c.499290995753654-.78701801025727,1.489410428013798-1.108595261760456,2.352591471521009-.761630332508503.837793365757534.330039810753988,2.16641516801883.736242654757007,3.757376307031336.837793365758444l4.341292895289371-1.497872987262781c.059237914751066-.016925118500694.118475829499403-.033850237001388.18617630350127-.025387677751496,1.582498579764433.067700474001867,2.98728341527567.093088151751545,4.172041710286067.076163033252669h.008462559249892c.270801896002922,0,.490828436503762.220026540500839.499290995754563.490828436503762.008462559250802.279264455251905-.211563981250947.507753555004456-.490828436503762.507753555004456-1.184758295009487.025387677748768-2.572618012021849,0-4.138191473285588-.067700474001867l-4.349755454539263,1.489410428013798c-.059237914749247.016925118500694-.126938388751114.033850236999569-.18617630350218.025387677751496-1.777137442514686-.093088151750635-3.24962275202779-.550066351256646-4.172041710285157-.913956399010203-.414665403253821-.169251185000576-.897031280506781-.008462559248073-1.142445498760026.37235260700345l-4.146654032536389,6.507708063308201c-.228489099751641.355427488502755-.194638862750253.803943128756146.07616303325176,1.125520380258422l1.861763035015429,2.16641516801883h0l2.039476779268625,2.377979149270686c.101550711001437.118475829502131.143863507250899.279264455252815.11001327024951.431590521754515-.033850236999569.152326066501701-.135400948001006.279264455252815-.270801896002013.346964929251953-.736242654757007.346964929253772-1.345546920760171.52467867350515-1.827912798015859.52467867350515ZM2.90637254234116,22.537327020683733c-.18617630350127.693929858505726-.169251185000576,1.159370617257991-.025387677748768,1.294771565258998.025387677748768.025387677751496.245414218250517.194638862752072,1.049357347008481-.101550710998708l-1.023969669259714-1.193220854260289Z"/>
      <path class="cls-1" d="M5.064325151110097,28.266479632982737c-.44851564025339,0-.854718484256409-.143863507251808-1.117057821010349-.406202844003928l-.74470521400508-.744705214006899c-.279264455251905-.279264455251905-.431590521754515-.643154503005462-.431590521754515-1.040894787757679,0-.380815166254251.143863507251808-.744705214006899.406202844003928-1.015507110008912l1.184758295009487-1.455560191014229c.008462559249892-.016925118498875.025387677751496-.025387677749677.033850237001388-.042312796250371.685467299255833-.685467299255833,2.047939338517608-.668542180755139,2.750331756274136.033850237001388l.304652133001582.304652133002492c.685467299255833.685467299255833.998581991510036,1.743287205515117.279264455252815,2.462604741770519l-1.438635072510806,1.438635072512625c-.270801896004741.270801896002013-.693929858506635.431590521754515-1.15937061726072.44851564025339-.016925118501604.016925118501604-.042312796250371.016925118501604-.067700474001867.016925118501604ZM5.123563065861163,24.263689107697246l-1.176295735761414,1.447097631763427c-.008462559248073.016925118498875-.025387677749677.025387677749677-.033850236999569.042312796250371-.18617630350218.18617630350218-.18617630350218.48236587725296,0,.660079621504337l.744705214006899.744705214006899c.059237914751066.059237914751066.228489099751641.118475829502131.44851564025339.110013270252239.236951659002443-.008462559250802.414665403253821-.084625592500743.490828436505581-.160788625752502l1.438635072510806-1.438635072513534c.279264455252815-.279264455250086-.016925118498875-.795480569505344-.279264455252815-1.049357347008481l-.304652133001582-.304652133001582c-.313114692252384-.304652133004311-1.032432228509606-.321577251503186-1.328621802261296-.050775355501173Z"/>
      <path class="cls-1" d="M7.645405722382748,30.399044563999269c-.33850237000388,0-.651617062256264-.126938388750204-.880106162007905-.363890047750829l-1.074745024758158-1.074745024759977c-.533141232755952-.533141232753223-.533141232755952-1.404784835511236,0-1.946388627517081l1.616348816762184-1.616348816763093c.304652133004311-.304652133003401.71085497700733-.473903318003977,1.142445498761845-.473903318003977.431590521752696,0,.837793365755715.169251185000576,1.142445498760026.473903318003977l.736242654756097.736242654754278c.583916588254397.583916588257125.583916588254397,1.523260665014277,0,2.107177253268674l-1.79406256101538,1.794062561017199c-.236951659002443.236951659000624-.550066351254827.363890047750829-.888568721258707.363890047750829ZM8.44088629189082,25.92235072071162c-.160788625752502,0-.313114692252384.059237914751066-.431590521754515.177713744251378l-1.616348816764912,1.616348816764912c-.067700473999139.067700474000958-.11001327024951.169251185000576-.11001327024951.262339336751211,0,.101550711001437.042312796250371.194638862752072.11001327024951.26233933675212l1.074745024759977,1.074745024759977h0c.093088151751545.093096863580286.253876777501318.093096863580286.355427488502755,0l1.79406256101538-1.79406256101538c.194638862752072-.194638862752981.194638862752072-.499290995754563,0-.693929858506635l-.736242654756097-.736242654756097c-.118475829500312-.11001327025042-.279264455252815-.169251185001485-.440053081002588-.169251185001485Z"/>
      <path class="cls-1" d="M10.150323260405457,31.998468262265305c-.389277725504144,0-.761630332507593-.152326066501701-1.040894787760408-.431590521754515l-.744705214006899-.744705214006899c-.279264455251905-.279264455252815-.431590521751787-.643154503005462-.431590521751787-1.040894787758589,0-.389277725502325.152326066499882-.761630332507593.431590521751787-1.040894787758589l1.438635072513534-1.438635072512625c.693929858505726-.693929858506635,1.819450238766876-.693929858506635,2.513380097270783,0l.304652133004311.304652133001582c.753167773254972.753167773257701.812405688006038,1.692511850014853.152326066499882,2.352591471521009l-1.590961139013416,1.616348816764003c-.270801896002013.270801896002922-.643154503005462.423127962504623-1.032432228507787.423127962504623ZM11.05581710016304,27.801038874227743c-.203101422002874,0-.397740284753127.076163033252669-.550066351254827.228489099752551l-1.438635072513534,1.438635072512625c-.084625592499833.084625592500743-.135400948001006.203101422001055-.135400948001006.330039810753078,0,.126938388751114.050775355501173.245414218251426.135400948001006.330039810751259l.744705214006899.744705214006899c.18617630350218.18617630350218.482365877253869.18617630350218.660079621507066,0l1.590961139012506-1.599423698263308c.33850237000388-.33850237000388.050775355501173-.736242654756097-.152326066501701-.939344076758971l-.304652133001582-.304652133001582c-.15232606650261-.152326066499882-.346964929254682-.228489099752551-.550066351254827-.228489099752551Z"/>
      <path class="cls-1" d="M23.419616164520448,11.239810421833681c-.135400948001006,0-.26233933675212-.050775355501173-.355427488502755-.143863507249989l-1.531723224264169-1.540185783514062c-.194638862752072-.194638862752072-.194638862752072-.516216114255258,0-.71085497700733s.516216114255258-.194638862752072.710854977005511,0l1.015507110008912,1.023969669259714c.753167773257701-1.430172513262733,2.200265405021128-2.750331756273226,4.392068250789634-4.002790525284581.236951659002443-.135400948001916.541603792004025-.050775355501173.685467299255833.18617630350127.135400948001006.236951659002443.050775355500264.541603792004025-.18617630350218.685467299255833-2.335666353019406,1.337084361512098-3.731988629282569,2.699556400772963-4.2566673027859,4.180504269535959-.059237914751066.160788625752502-.194638862752072.279264455252815-.363890047753557.321577251503186h-.110013270251329Z"/>
      <path class="cls-1" d="M24.900564033283445,17.036663508134552c-.093088151750635,0-.18617630350127-.025387677749677-.270801896002013-.076163033249941-2.073327016268195-1.337084361512098-3.706600951533801-2.970358296777704-4.849046450292917-4.857509009543719-.913956399007475-1.514798105763475-1.523260665013368-3.190384837276724-1.79406256101538-4.984447398292104-.465440758754994-3.054983889277537.169251185000576-5.365262564548175.203101422001964-5.466813275547793.042312796250371-.143863507251808.152326066499882-.270801896002013.287727014500888-.330039810753078.143863507251808-.059237914751066.304652133004311-.050775355501173.440053081005317.025387677748768,1.277846446761032.727780095506205,2.437217064020842.93934407675988,3.452724174030664.643154503006372,1.404784835511236-.414665403253821,2.09025213476707-1.700974409265655,2.098714694016962-1.71789952776362.084625592500743-.169251185003304.253876777503137-.270801896004741.440053081005317-.270801896004741h0c.18617630350127,0,.355427488502755.101550711001437.440053081002588.270801896004741.008462559250802.008462559248073.693929858506635,1.3032341245098,2.098714694017872,1.71789952776362,1.015507110008912.296189573753509,2.174877727269632.084625592499833,3.452724174029754-.643154503006372.135400948001916-.076163033249941.296189573753509-.084625592499833.440053081005317-.025387677748768s.245414218250517.177713744251378.287727014500888.330039810753078c.025387677751496.093088151750635.668542180756958,2.411829386270256.203101422002874,5.466813275547793-.279264455252815,1.79406256101538-.880106162007905,3.469649292528629-1.79406256101538,4.984447398292104-1.142445498760026,1.887150712766015-2.775719434025632,3.520424648031621-4.849046450293827,4.857509009543719-.101550710998708.050775355500264-.194638862749343.076163033249941-.287727014500888.076163033249941ZM19.010622795231939,2.531836953507081c-.152326066501701.846255925008336-.346964929253772,2.513380097273512-.033850236999569,4.468231284041394.575454029004504,3.689675833030378,2.572618012022758,6.693884366806742,5.923791475051075,8.936462568076422,3.351173463029227-2.24257820126968,5.348337446045662-5.246786735046044,5.923791475051075-8.936462568076422.304652133002492-1.963313746018684.118475829500312-3.621975359033058-.033850236999569-4.468231284041394-1.303234124511619.609304266005893-2.530305215771477.753167773256791-3.647363036781826.41466540325564-1.083207584010779-.321577251503186-1.819450238765057-1.023969669259714-2.24257820126968-1.557110902015665-.423127962503713.52467867350606-1.15937061726072,1.227071091262587-2.24257820126877,1.557110902015665-1.117057821010349.338502370001152-2.344128912272026.194638862750253-3.647363036782735-.41466540325564Z"/>
    </g>
  </g>
</svg>