<?xml version="1.0" encoding="UTF-8"?>
<svg id="Layer_1" data-name="Layer 1" xmlns="http://www.w3.org/2000/svg" viewBox="0 0 32 32">
  <defs>
    <style>
      .cls-1 {
        fill: #fffffe;
      }
    </style>
  </defs>
  <path class="cls-1" d="M23.185351923648341,20.852546641219305c-.445464218113557,0-.901534727132457-.053031454536722-1.346998945242376-.18030694542631-1.346998945246014-.360613890852619-2.47126578143434-1.23032974526177-3.171280981323434-2.428840617802052-.700015199889094-1.209117163447445-.880322145316313-2.619753854135524-.519708254463694-3.956146508471647.3606138908508-1.346998945244195,1.23032974526177-2.471265781431612,2.428840617802052-3.171280981322525,1.209117163445626-.700015199890004,2.619753854134615-.880322145317223,3.956146508469828-.519708254463694,2.778848217749328.742440363519563,4.433429599308511,3.616745199434263,3.690989235787129,6.395593417180862-.615164872629975,2.322777708728609-2.736423054118859,3.860689890305366-5.037988181029505,3.860689890305366ZM23.174745632741178,11.137184170012006c-.77425923624287,0-1.548518472485739.201519527240634-2.23792738146949.604558581723722-1.039416508929207.604558581723722-1.78185687244877,1.569731054300064-2.089439308761939,2.725816763209878-.307582436314988,1.156085708909814-.148488072705732,2.375809163264421.445464218111738,3.415225672192719.604558581720994,1.039416508928298,1.569731054298245,1.78185687244877,2.725816763209878,2.089439308764668,2.397021745078746.646983745352372,4.868287526509448-.784865527150032,5.504664980955567-3.181887272229687.636377454447938-2.397021745080565-.784865527150032-4.868287526511267-3.181887272228778-5.504664980958296-.381826472666944-.095456618166281-.77425923624287-.148488072703003-1.166691999816976-.148488072703003Z"/>
  <path class="cls-1" d="M23.195958214555503,22.369246240981738c-.583345999908488,0-1.177298290724138-.074244036351956-1.750037999725464-.233338399963031-1.739431708820121-.466676799926972-3.19249356313594-1.580337345207226-4.083421999363054-3.139462108599218-1.856100908799817-3.213706144952084-.753046654426726-7.339553307943788,2.460659490525359-9.195654216743606h0c1.559124763392902-.901534727131548,3.372800508563159-1.134873127095489,5.101625926474298-.668196327168516,1.739431708820121.466676799926972,3.19249356313594,1.580337345207226,4.083421999363054,3.139462108599218.901534727130638,1.559124763392902,1.13487312709367,3.372800508564069.668196327167607,5.101625926476117-.466676799927882,1.739431708818302-1.580337345209045,3.19249356313594-3.139462108600128,4.083421999360326-1.018203927113063.604558581723722-2.174289636024696.91214101803871-3.340981635841672.91214101803871ZM20.183771596844963,10.437168970121093c-2.863698545004809,1.654581381559183-3.850083599397294,5.334964326439149-2.195502217839021,8.198662871444867,1.113660545281164,1.919738654245521,3.128855817692966,3.001580326803378,5.207688835549561,3.001580326803378,1.018203927113063,0,2.047014145135108-.254550981777356,2.990974035896215-.806078108964357,1.389424108874664-.806078108965266,2.386415454171583-2.10004559967183,2.800060799563653-3.648564072157569.413645345388431-1.54851847248392.201519527239725-3.171280981321615-.604558581724632-4.56070509019446s-2.100045599670921-2.386415454173402-3.648564072158479-2.800060799562743c-1.537912181576758-.403039054481269-3.160674690414453-.190913236333472-4.550098799287298.615164872630885h0Z"/>
  <path class="cls-1" d="M27.141498432119988,22.857135622724854c-.127275490887769,0-.243944690870194-.063637745445703-.31818872722215-.180306945427219l-.77425923624287-1.346998945243286c-.0954566181681-.169700654519147-.042425163630469-.392432763575016.127275490891407-.498495672649369.169700654518238-.095456618167191.392432763572288-.042425163629559.49849567264755.127275490889588l.77425923624287,1.346998945243286c.095456618166281.169700654519147.04242516362865.392432763575016-.127275490889588.498495672649369-.053031454537631.031818872721487-.116669199982425.053031454537631-.180306945427219.053031454537631Z"/>
  <path class="cls-1" d="M29.665795668090141,29.369398239887232c-.0954566181681,0-.190913236334382-.010606290907162-.286369854502482-.042425163629559-.286369854498844-.074244036351956-.530314545370857-.265157272686338-.678802618074769-.519708254463694l-2.397021745080565-4.147059744806029c-.243944690870194-.424251636297413-.307582436314988-.91214101803871-.1803069454254-1.378817817965682.127275490887769-.466676799927882.424251636297413-.859109563501988.848503272594826-1.103054254374001h0c.869715854407332-.49849567264846,1.983376399688495-.201519527241544,2.481872072337865.668196327169426l2.397021745080565,4.147059744805119c.148488072702094.254550981778266.190913236334382.551527127186091.106062909075263.848503272594826-.074244036353775.286369854500663-.265157272688157.530314545371766-.519708254463694.678802618075679l-1.219723454354607.700015199890004c-.169700654518238.095456618167191-.360613890854438.148488072703913-.551527127187001.148488072703913ZM27.321805377547207,22.804104168187223c-.254550981779175.148488072703913-.434857927206394.381826472667854-.509101963556532.668196327168516-.074244036353775.286369854500663-.042425163630469.583345999908488.106062909075263.827290690778682l2.397021745078746,4.147059744806938c.053031454535812.084850327259119.137881781794931.148488072703913.233338399963031.1803069454254s.201519527243363.010606290907162.296976145407825-.042425163629559l1.219723454354607-.700015199890913c.084850327259119-.053031454536722.148488072703913-.137881781795841.1803069454254-.233338399962122.031818872723306-.106062909075263.010606290908981-.201519527241544-.04242516362865-.296976145408735l-2.397021745078746-4.147059744806029c-.286369854500663-.519708254463694-.954566181670089-.700015199890913-1.484880727040945-.403039054482178h0Z"/>
  <path class="cls-1" d="M28.191521231956358,27.566328785624137c-.127275490887769,0-.243944690872013-.063637745444794-.31818872722215-.18030694542631-.0954566181681-.169700654519147-.042425163632288-.392432763575016.127275490887769-.498495672650279l2.524297235970153-1.453061854316729c.169700654520057-.0954566181681.392432763574107-.042425163629559.498495672649369.127275490887769.095456618166281.169700654520057.04242516362865.392432763575925-.127275490889588.498495672650279l-2.524297235968334,1.453061854318548c-.063637745446613.042425163629559-.127275490889588.053031454536722-.180306945427219.053031454536722ZM27.077860686675194,25.657196422285779c-.127275490887769,0-.243944690870194-.063637745443884-.31818872722215-.18030694542631-.095456618166281-.169700654518238-.042425163630469-.392432763575016.127275490887769-.49849567264846l2.524297235970153-1.453061854318548c.169700654518238-.095456618166281.392432763574107-.042425163629559.498495672649369.127275490889588.095456618164462.169700654518238.042425163630469.392432763574107-.127275490889588.49849567264846l-2.524297235968334,1.453061854318548c-.053031454537631.031818872722397-.116669199982425.053031454536722-.180306945427219.053031454536722Z"/>
  <path class="cls-1" d="M22.527761887386077,29.369398239887232H4.15766603571501c-.837896981687663,0-1.516699599762433-.678802618074769-1.516699599762433-1.516699599762433V6.661329407075755c0-.837896981687663.678802618074769-1.516699599762433,1.516699599762433-1.516699599762433h18.370095851671067c.837896981689482,0,1.516699599764252.678802618074769,1.516699599764252,1.516699599762433v2.619753854135524c0,.201519527240634-.159094363612894.36061389085171-.360613890852619.36061389085171-.201519527241544,0-.360613890854438-.159094363611075-.360613890854438-.36061389085171v-2.619753854135524c0-.434857927205485-.3606138908508-.795471818058104-.795471818057194-.795471818058104H4.15766603571501c-.434857927204575,0-.795471818057194.360613890852619-.795471818057194.795471818058104v21.180762942141882c0,.434857927204575.360613890852619.795471818056285.795471818057194.795471818056285h18.370095851671067c.434857927206394,0,.795471818057194-.36061389085171.795471818057194-.795471818056285v-5.865278871810915c0-.201519527240634.159094363612894-.36061389085171.360613890854438-.36061389085171.201519527239725,0,.360613890852619.159094363611075.360613890852619.36061389085171v5.865278871810915c0,.848503272594826-.678802618074769,1.527305890669595-1.516699599764252,1.527305890669595Z"/>
  <path class="cls-1" d="M3.001580326805197,26.717825513029311h-1.484880727040945C.678802618077498,26.717825513029311.000000000001819,26.039022894953632.000000000001819,25.201125913266878V4.020362971124996C.000000000001819,3.182465989437333.678802618077498,2.503663371362563,1.516699599764252,2.503663371362563h18.370095851671067c.837896981689482,0,1.516699599764252.678802618074769,1.516699599764252,1.516699599762433v1.484880727040945c0,.201519527240634-.159094363612894.36061389085171-.360613890852619.36061389085171-.201519527241544,0-.360613890852619-.159094363611075-.360613890852619-.36061389085171v-1.484880727040945c0-.434857927204575-.360613890852619-.795471818058104-.795471818059013-.795471818058104H1.506093308857089c-.434857927203666,0-.795471818057194.360613890853529-.795471818057194.795471818058104v21.180762942141882c0,.434857927204575.360613890853529.795471818057194.795471818057194.795471818057194h1.484880727040036c.201519527241544,0,.360613890852619.159094363611985.360613890852619.360613890852619.010606290908072.201519527240634-.148488072703913.360613890852619-.350007599944547.360613890852619Z"/>
  <path class="cls-1" d="M10.404771380192869,14.838779696706297h-4.327366690232338c-.859109563501988,0-1.54851847248483-.700015199890913-1.54851847248483-1.548518472485739v-4.083421999361235c0-.859109563501988.700015199890004-1.548518472485739,1.54851847248483-1.548518472485739h4.327366690232338c.859109563501988,0,1.54851847248483.700015199890913,1.54851847248483,1.548518472485739v4.083421999361235c0,.848503272594826-.700015199890004,1.548518472485739-1.54851847248483,1.548518472485739ZM6.066798399053368,8.379548534079731c-.45607050901981,0-.827290690780501.371220181759782-.827290690780501.827290690779591v4.083421999361235c0,.45607050901981.371220181760691.827290690779591.827290690780501.827290690779591h4.327366690232338c.4560705090189,0,.827290690778682-.371220181759782.827290690778682-.827290690779591v-4.083421999361235c0-.45607050901981-.371220181759782-.827290690779591-.827290690778682-.827290690779591h-4.327366690232338Z"/>
  <path class="cls-1" d="M18.911016687954543,8.878044206729101h-5.547090144587855c-.201519527242453,0-.360613890852619-.159094363611985-.360613890852619-.360613890852619,0-.201519527241544.159094363610166-.360613890852619.360613890852619-.360613890852619h5.547090144587855c.201519527239725,0,.360613890848981.159094363611075.360613890848981.360613890852619,0,.201519527240634-.169700654516419.360613890852619-.360613890848981.360613890852619Z"/>
  <path class="cls-1" d="M16.439750906521112,11.603860969938978h-2.757635635932274c-.201519527239725,0-.36061389085171-.159094363611985-.36061389085171-.360613890853529,0-.201519527240634.159094363611985-.36061389085171.36061389085171-.36061389085171h2.757635635932274c.201519527241544,0,.360613890853529.159094363611075.360613890853529.36061389085171,0,.201519527241544-.159094363611985.360613890853529-.360613890853529.360613890853529Z"/>
  <path class="cls-1" d="M15.495791015760005,14.340284024056018h-1.824282036080149c-.201519527239725,0-.3606138908508-.159094363611075-.3606138908508-.360613890852619s.159094363611075-.360613890852619.3606138908508-.360613890852619h1.824282036080149c.201519527239725,0,.36061389085171.159094363611075.36061389085171.360613890852619s-.159094363611985.360613890852619-.36061389085171.360613890852619Z"/>
  <path class="cls-1" d="M14.753350652238623,17.585809041730499H4.88950010832832c-.201519527241544,0-.360613890852619-.159094363611075-.360613890852619-.360613890852619s.159094363611075-.360613890852619.360613890852619-.360613890852619h9.863850543910303c.201519527241544,0,.360613890854438.159094363611075.360613890854438.360613890852619s-.159094363612894.360613890852619-.360613890854438.360613890852619Z"/>
  <path class="cls-1" d="M14.753350652238623,19.908586750458198H4.88950010832832c-.201519527241544,0-.360613890852619-.159094363611075-.360613890852619-.360613890852619s.159094363611075-.360613890852619.360613890852619-.360613890852619h9.863850543910303c.201519527241544,0,.360613890854438.159094363611075.360613890854438.360613890852619s-.159094363612894.360613890852619-.360613890854438.360613890852619Z"/>
  <path class="cls-1" d="M21.806534105682658,22.220758168277825H4.88950010832832c-.201519527241544,0-.360613890852619-.159094363611075-.360613890852619-.36061389085171,0-.201519527242453.159094363611075-.360613890853529.360613890852619-.360613890853529h16.917033997354338c.201519527239725,0,.360613890852619.159094363611075.360613890852619.360613890853529,0,.201519527240634-.159094363612894.36061389085171-.360613890852619.36061389085171Z"/>
  <path class="cls-1" d="M21.806534105682658,24.543535877006434H4.88950010832832c-.201519527241544,0-.360613890852619-.159094363611985-.360613890852619-.360613890852619,0-.201519527241544.159094363611075-.360613890853529.360613890852619-.360613890853529h16.917033997354338c.201519527239725,0,.360613890852619.159094363611985.360613890852619.360613890853529,0,.190913236333472-.159094363612894.360613890852619-.360613890852619.360613890852619Z"/>
  <path class="cls-1" d="M21.806534105682658,26.855707294826971H4.88950010832832c-.201519527241544,0-.360613890852619-.159094363611985-.360613890852619-.360613890853529,0-.201519527240634.159094363611075-.360613890852619.360613890852619-.360613890852619h16.917033997354338c.201519527239725,0,.360613890852619.159094363611985.360613890852619.360613890852619,0,.201519527241544-.159094363612894.360613890853529-.360613890852619.360613890853529Z"/>
</svg>