<?xml version="1.0" encoding="UTF-8"?>
<svg id="Layer_1" data-name="Layer 1" xmlns="http://www.w3.org/2000/svg" viewBox="0 0 32 32">
  <defs>
    <style>
      .cls-1 {
        fill: #fff;
        fill-rule: evenodd;
      }
    </style>
  </defs>
  <g id="Layer_1-2" data-name="Layer_1">
    <path class="cls-1" d="M16.77576312936344,29.743677446571382H3.176568787113865c-.497911005665628,0-.898018063790005-.404552692103607-.898018063790005-.898018063788186V6.861999355836815h21.214565348549513v10.167164910339125c-4.583448632512955-.524584809540102-8.597856115694412,3.067487445619918-8.597856115694412,7.668718614049794,0,1.924959512976784.706855802685823,3.68987620270309,1.880503173184479,5.045794566345648ZM11.147590511747694,19.243089987798157h-6.099409819407811c-.200053529061734,0-.364541986290533-.164488457228799-.364541986290533-.364541986293261,0-.204499163040964.164488457228799-.368987620269763.364541986290533-.368987620269763h6.099409819407811c.200053529061734,0,.364541986290533.164488457228799.364541986290533.368987620269763,0,.200053529064462-.164488457228799.364541986293261-.364541986290533.364541986293261ZM17.687118095091137,16.50902509061234H5.048180692339884c-.200053529061734,0-.364541986290533-.16448845722698-.364541986290533-.364541986289623,0-.204499163040964.164488457228799-.368987620269763.364541986290533-.368987620269763h12.638937402751253c.204499163040964,0,.368987620269763.164488457228799.368987620269763.368987620269763,0,.200053529062643-.164488457228799.364541986289623-.368987620269763.364541986289623ZM17.687118095091137,13.774960193430161H5.048180692339884c-.200053529061734,0-.364541986290533-.164488457228799-.364541986290533-.368987620269763,0-.200053529060824.164488457228799-.364541986291442.364541986290533-.364541986291442h12.638937402751253c.204499163040964,0,.368987620269763.164488457230618.368987620269763.364541986291442,0,.204499163040964-.164488457228799.368987620269763-.368987620269763.368987620269763ZM17.687118095091137,11.040895296246163H5.048180692339884c-.200053529061734,0-.364541986290533-.164488457228799-.364541986290533-.368987620269763,0-.200053529062643.164488457228799-.364541986289623.364541986290533-.364541986289623h12.638937402751253c.204499163040964,0,.368987620269763.16448845722698.368987620269763.364541986289623,0,.204499163040964-.164488457228799.368987620269763-.368987620269763.368987620269763ZM2.27855072332386,6.12846974927561v-3.249758438765639c0-.497911005666538.400107058124377-.902463697770145.898018063790005-.902463697770145h2.169469381829913v1.787144859623368c0,.737975240539527.604606221165341,1.342581461705777,1.342581461705777,1.342581461705777.417889594040389,0,.786877214311062-.191162261104182,1.035832717144331-.484574103727937.244509868854038.293411842623755.613497489123802.484574103727937,1.0313870831651.484574103727937.413443960062068,0,.786877214311971-.191162261104182,1.0313870831651-.484574103727937.244509868853129.293411842623755.617943123103032.484574103727937,1.0313870831651.484574103727937.417889594041299,0,.786877214311062-.191162261104182,1.035832717144331-.484574103727937.244509868854038.293411842623755.613497489123802.484574103727937,1.0313870831651.484574103727937.413443960061159,0,.786877214311062-.191162261104182,1.0313870831651-.484574103727937.244509868854038.293411842623755.617943123103032.484574103727937,1.0313870831651.484574103727937.417889594041299,0,.786877214311062-.191162261104182,1.035832717143421-.484574103727937.244509868854948.293411842623755.613497489124711.484574103727937,1.0313870831651.484574103727937.413443960062068,0,.786877214311971-.191162261104182,1.0313870831651-.484574103727937.244509868854948.293411842623755.617943123103032.484574103727937,1.031387083166919.484574103727937.742420874517848,0,1.342581461703958-.60016058718611,1.342581461703958-1.342581461705777v-1.787144859623368h2.173915015810053c.493465371686398,0,.898018063790005.404552692103607.898018063790005.902463697770145v3.249758438765639H2.27855072332386Z"/>
    <path class="cls-1" d="M6.688619630649555,4.496922078924399c-.404552692102698,0-.733529606561206-.328976914457598-.733529606561206-.733529606561206V.927077993657804c0-.404552692103607.328976914458508-.733529606561206.733529606561206-.733529606561206.404552692103607,0,.733529606562115.328976914457598.733529606562115.733529606561206v2.83631447870539c0,.404552692103607-.328976914458508.733529606561206-.733529606562115.733529606561206ZM8.755839430958986,4.496922078924399c-.404552692103607,0-.733529606561206-.328976914457598-.733529606561206-.733529606561206V.927077993657804c0-.404552692103607.328976914457598-.733529606561206.733529606561206-.733529606561206s.733529606561206.328976914457598.733529606561206.733529606561206v2.83631447870539c0,.404552692103607-.328976914457598.733529606561206-.733529606561206.733529606561206ZM10.818613597289186,4.496922078924399c-.404552692102698,0-.729083972581975-.328976914457598-.729083972581975-.733529606561206V.927077993657804c0-.404552692103607.324531280479277-.733529606561206.729083972581975-.733529606561206.404552692103607,0,.733529606562115.328976914457598.733529606562115.733529606561206v2.83631447870539c0,.404552692103607-.328976914458508.733529606561206-.733529606562115.733529606561206ZM12.885833397598617,4.496922078924399c-.404552692103607,0-.733529606562115-.328976914457598-.733529606562115-.733529606561206V.927077993657804c0-.404552692103607.328976914458508-.733529606561206.733529606562115-.733529606561206.404552692102698,0,.729083972581975.328976914457598.729083972581975.733529606561206v2.83631447870539c0,.404552692103607-.324531280479277.733529606561206-.729083972581975.733529606561206ZM14.948607563928817,4.496922078924399c-.404552692103607,0-.729083972581975-.328976914457598-.729083972581975-.733529606561206V.927077993657804c0-.404552692103607.324531280478368-.733529606561206.729083972581975-.733529606561206s.733529606561206.328976914457598.733529606561206.733529606561206v2.83631447870539c0,.404552692103607-.328976914457598.733529606561206-.733529606561206.733529606561206ZM17.015827364237339,4.496922078924399c-.404552692103607,0-.733529606560296-.328976914457598-.733529606560296-.733529606561206V.927077993657804c0-.404552692103607.328976914456689-.733529606561206.733529606560296-.733529606561206s.729083972582885.328976914457598.729083972582885.733529606561206v2.83631447870539c0,.404552692103607-.324531280479277.733529606561206-.729083972582885.733529606561206ZM19.078601530569358,4.496922078924399c-.404552692105426,0-.729083972582885-.328976914457598-.729083972582885-.733529606561206V.927077993657804c0-.404552692103607.324531280477458-.733529606561206.729083972582885-.733529606561206.404552692103607,0,.733529606559387.328976914457598.733529606559387.733529606561206v2.83631447870539c0,.404552692103607-.328976914455779.733529606561206-.733529606559387.733529606561206Z"/>
    <path class="cls-1" d="M22.612880544000291,31.806451612903402c-3.916603535639297,0-7.108568732677668-3.187519563058231-7.108568732677668-7.108568732677668s3.187519563058231-7.108568732675849,7.108568732677668-7.108568732675849,7.108568732675849,3.187519563056412,7.108568732675849,7.108568732675849-3.187519563056412,7.108568732677668-7.108568732675849,7.108568732677668ZM22.612880544000291,29.832590126155992c-.671290730853798,0-1.218103710290961-.546812979437163-1.218103710290961-1.218103710290961v-4.885751743096989l-.755757776454629.751312142478127c-.764649044416728.769094678396868-2.080556702248941.222281698957886-2.080556702248941-.862452991956161,0-.324531280477458.128923385394955-.631280025039814.355650718332981-.862452991956161l2.836314478703571-2.836314478703571c.475682835769476-.475682835771295,1.249223148142846-.475682835771295,1.724905983914141,0l2.836314478703571,2.836314478703571c.475682835771295.475682835769476.475682835771295,1.249223148142846,0,1.724905983912322-.475682835769476.475682835771295-1.249223148142846.475682835771295-1.724905983914141,0l-.751312142476309-.751312142478127v4.885751743096989c0,.671290730853798-.546812979437163,1.218103710290961-1.222549344269282,1.218103710290961ZM21.759318820000772,22.479511524625195c.200053529062643,0,.368987620271582.160042823250478.368987620271582.364541986291442v5.770432904948393c0,.26673803875201.217836064977746.484574103727937.484574103727937.484574103727937.271183672728512,0,.489019737708077-.217836064975927.489019737708077-.484574103727937v-5.770432904948393c0-.324531280477458.395661424145146-.489019737708077.626834391059674-.25784677079173l1.37814653354144,1.378146533539621c.306748744562356.306748744562356.831333554102457.088912679582791.831333554102457-.34675945037452,0-.128923385396774-.053347607750766-.248955502833269-.142260287331737-.342313816396199l-2.83631447870539-2.836314478703571c-.191162261104182-.191162261104182-.502356639644859-.191162261104182-.689073266768901,0l-2.83631447870539,2.836314478703571c-.191162261102363.191162261104182-.191162261102363.497911005666538,0,.68907326677072.186716627125861.191162261102363.497911005666538.191162261102363.68907326677072,0l1.378146533539621-1.378146533539621c.07113014366405-.071130143665869.16448845722698-.106695215499713.257846770789911-.106695215499713Z"/>
  </g>
</svg>