<?xml version="1.0" encoding="UTF-8"?>
<svg id="Layer_1" data-name="Layer 1" xmlns="http://www.w3.org/2000/svg" viewBox="0 0 32 32">
  <defs>
    <style>
      .cls-1 {
        fill: #fff;
        fill-rule: evenodd;
      }
    </style>
  </defs>
  <path class="cls-1" d="M.992462143364719,2.870681215505101L15.556908145881607.384509762974631c.437190476883188-.074642248491728.855085618526573.221768755969606.929855405763192.65991126389963l.225322407973181,1.320139952191312-11.462285282000266,1.958407521462505c-.990215917405294.169214559937245-1.657299616628734,1.113223558491882-1.488148493143854,2.103185730084078l.858005148118536,5.021787988514916H1.639361428508892L.334137275042849,3.801679203799722c-.074769181926968-.438015635023476.221197525237585-.856418510418735.658324505136079-.930997261923039l.000000363185791-.000000726371582ZM27.0459171233706,14.512970823343494c2.557893384525414,0,4.631502231467493,2.073608846942079,4.631502231467493,4.631566152169398,0,2.557893384522686-2.073608846942079,4.631502231464765-4.631502231467493,4.631502231464765-2.5579573052255,0-4.631566152167579-2.073606909951195-4.631566152167579-4.631502231464765,0-2.557957305227319,2.073606909950286-4.631566152169398,4.631566152167579-4.631566152169398ZM28.527147653378051,17.162962316046105l-2.190711571151951,2.211276603951774-.781521608148978-.761845654191347c-.328147571970476-.319134753130129-.852926842125271-.311898154983282-1.1720615952554.016249416987193-.319134753131948.328147571970476-.311898154984192.85292684212618.016249416986284,1.172061595258128l1.369648229973791,1.334991588089906c.325036764522338.316277691497817.844867022828112.312723313125389,1.165524250837734-.009648151864894l2.768237041565953-2.794198531122674c.322751115213578-.324529272897053.321292561036898-.849310480041822-.003236711859245-1.172061595256309-.324593193597138-.322815035917301-.849372463752843-.321354544748829-1.172125515958214.00317279115734l-.000001936989975.000001936990884ZM1.464691817839594,12.463482356070017c-.340650606358395,0-.619353094876715.278702972764222-.619353094876715.619352852751035v17.919729793458828c0,.34344398941721.281114526484998.62443164299475.624430916623169.62443164299475h27.779556030542153c.343443989416301,0,.624431642993841-.28098765357754.624431642993841-.62443164299475v-6.96940574407563c-.831664492588061.482190650380289-1.79750822150254.75841911722091-2.827838252760557.75841911722091-3.913388021705941,0-6.601716439074153-3.871368877267741-5.332859532612929-7.507641290283573h-12.237079720617658l-2.51644758940256-4.820455697567013-5.494840399888744.000000968495442ZM25.981695561654305,27.300030066233376c.28041624125035,0,.507770552719194.227354311466115.507770552719194.507770552716465,0,.280416241252169-.227354311468844.507770552718284-.507770552719194.507770552718284H4.737336795854389c-.280416241252169,0-.507770552719194-.227354311466115-.507770552719194-.507770552718284,0-.28041624125035.227354311467025-.507770552716465.507770552719194-.507770552716465h21.244358765799916ZM8.81035611482821,23.166014902588358c.28041624125126,0,.507770552718284.227354311467934.507770552718284.507770552720103,0,.28041624125035-.227354311467025.507770552718284-.507770552718284.507770552718284h-4.072954429777383c-.280416241252169,0-.507770552719194-.227354311467934-.507770552719194-.507770552718284,0-.280416241252169.227354311467025-.507770552720103.507770552719194-.507770552720103h4.072954429777383ZM22.675159053178504,7.355626596419825l3.704820585357083,3.711357929776568c.07165897978939.071785852695029.127070479581562.150617509929361.166104720984549.236367130306462h-3.379530075020739c-.400567789199158,0-.727380774412268-.327258493129193-.727380774412268-.728650471974106v-3.385496975608476c.085622747467824.039161598559076.164326563301984.094635566307261.235985543091374.166422387499551ZM26.615967118617846,13.51361327720042v-1.194720515260997h-3.449412834118448c-.961590096813779,0-1.742921879850655-.78279227420353-1.742921879850655-1.744191577410675v-3.455442202663107h-10.388350679218092c-.443727821301763,0-.805578067116585.362611483251385-.805578067116585.806974153334522v8.342162844503036h2.439773740072269c-.218848984253782-.056490403743737-.380574168725616-.255217926123805-.380574168725616-.491648977131263,0-.280416241252169.227354311467025-.507770552720103.507770552719194-.507770552720103h10.142652095061749c.937598527043519-.993135931244979,2.2311443200133-1.646509124355362,3.676639304185301-1.755363172651414h.000001936990884ZM12.796737703080908,9.688451318783336h6.569661176024056c.280416241252169,0,.507770552719194-.227354311466115.507770552719194-.507770552718284,0-.28041624125035-.227354311467025-.507770552718284-.507770552719194-.507770552718284h-6.569662144519498c-.280416241252169,0-.507770552719194.227354311467934-.507770552719194.507770552718284.000063920700995.280416241252169.227354311467025.507770552718284.507770552719194.507770552718284h.000000968495442ZM12.796737703080908,11.887097773316782h6.569661176024056c.280416241252169,0,.507770552719194-.227354311466115.507770552719194-.507770552718284s-.227354311467025-.507770552720103-.507770552719194-.507770552720103h-6.569662144519498c-.280416241252169,0-.507770552719194.227354311467934-.507770552719194.507770552720103.000063920700995.280416241252169.227354311467025.507770552718284.507770552719194.507770552718284h.000000968495442ZM12.796737703080908,14.085808148553042c-.280416241252169,0-.507770552719194-.227354311467934-.507770552719194-.507770552720103,0-.28041624125035.227354311467025-.507770552718284.507770552719194-.507770552718284h11.064510633735154c.28041624125126,0,.507770552718284.227354311467934.507770552718284.507770552718284,0,.280416241252169-.227354311467025.507770552720103-.507770552718284.507770552720103h-11.064510633735154ZM5.42086264266436,5.323972973217678c-.437063603977549.074705866534714-.732966572033547.493108499804293-.658134316838186.931124134827769l.88720189679043,5.19284317409074h1.925021787762489l1.639273494702138,3.140179978669039v-6.66188615710962c0-1.004433430898644.816431995843232-1.82251574302245,1.821119172554972-1.82251574302245h10.325197995137387l-.445631883394526-2.608290499021678c-.074895691648635-.438142507930024-.492727881087376-.734490015407573-.92998227867065-.65978439099672l-14.564065868044054,2.48832950256292Z"/>
</svg>