<?xml version="1.0" encoding="UTF-8"?>
<svg id="Layer_1" data-name="Layer 1" xmlns="http://www.w3.org/2000/svg" viewBox="0 0 32 32">
  <defs>
    <style>
      .cls-1 {
        fill: #fff;
      }
    </style>
  </defs>
  <path class="cls-1" d="M30.026497695851504,16.099307629368923c.023964644578882-3.434534655187235-2.737178907964335-6.240108149390835-6.171658986173497-6.27096661554333-.836874838798394-.00117501026034-1.664948872157765.170743544529614-2.432194186794732.504953703022693-.00841555617626.003927402231966-.015709608931502.008415556174441-.024125165105943.011782206697717-.711752298240754.313829402220108-1.357100464781979.760564450294623-1.901431993404913,1.316246920467165-1.169847919094536,1.179846207666742-1.822438771823727,2.77650643713514-1.813907640869729,4.437983785355755v2.27678142275181c0,2.984838538455733,3.185698944304022,3.23451002622005,6.171658986175316,3.23451002622005s6.171658986173497-.249671487764317,6.171658986173497-3.23451002622005v-2.27678142275181Z"/>
  <path class="cls-1" d="M1.412442396314873,22.73271889400894h17.043316203875293c-.137634580583835-.294516642522467-.236277654972582-.605723139328802-.293433664031909-.925749704035297l-.030297714443805-.196370111632859H.290322580645807c0,.619729090395595.502390190202277,1.122119815668157,1.122119815669066,1.122119815668157Z"/>
  <polygon class="cls-1" points="16.77538477550479 24.976958525345253 16.214324867669347 23.854838709678006 12.419315685325273 23.854838709678006 11.858255777491649 24.976958525345253 16.77538477550479 24.976958525345253"/>
  <path class="cls-1" d="M26.867729815470739,23.665199758819654c.135776823015476-.093136150167084.265381096693091-.181223394683911.387130565904954-.262014446169815.43527388243092-.287184064839494.778817774515119-.693440116497186.989709643175956-1.170370145877314-1.42879749333224.391552371362195-2.909479501608075.560173834523994-4.389731314873643.499903727236415-1.480251813265568.060297930845081-2.960940242362994-.108323532315808-4.389733455149326-.499903727236415.210498058302619.476540499567818.553682384404965.882441265791385.988588139758576,1.169248642459024.122873112903108.081914695178057.252477386580722.168317544296769.388254209596198.263138089861059.852248424758727.582379174123162,1.914335703520919,1.311756626252645,3.012891105794552,1.311756626252645,1.098555402271813,0,2.160642681034005-.729377452129484,3.012891105792733-1.3117587665256Z"/>
  <path class="cls-1" d="M26.095150938779625,26.09907834101341h-4.480624458206876c-3.201969304942395,0-5.614526480572749,2.170740492332698-5.614526480572749,5.04953917050625,0,.309864545197343.251195362634462.561059907834533.561059907833624.561059907834533h14.587557603686946c.309864545197343,0,.561059907833624-.251195362637191.561059907833624-.561059907834533,0-2.878798678173553-2.412557175632173-5.04953917050625-5.614526480574568-5.04953917050625Z"/>
  <path class="cls-1" d="M11.482906348144752,18.000740692912586c-.456822158004798-.181591521760311-.940740181004003-.285696574620488-1.431824910474461-.308021769546031l-1.112581685942132,1.112580615803381,1.328029127165792,1.327468375457102,1.216377469250801-2.132027221714452Z"/>
  <path class="cls-1" d="M3.656682027651186,9.26728110599106v.112212409620952c.19382318593307-.072702957188085.398940061093526-.110687464612056.605944657654618-.112212409620952,2.325032288028524-.006171479203658,3.478571321556956-.47465705871582,4.035142540380548-.865715026855469.585436555098568-.424967929515333,1.393888559210609-.356681962167386,1.899748668145548.160462739831019.481234119784858.473114991516923,1.135514718595005.728052622710493,1.809980238638673.70525228702445h0c.212559141868041.00396164661106.422923433063261.043795350508844.622215018291172.117822066978988-.025182460309225-1.242121216339001-.532403783312475-2.425772295569004-1.414431976283595-3.300715112464786-.809178627028814-.825939110348372-1.913899087685422-1.295727581473329-3.070119884154337-1.305586217185919h-.027491815630128c-2.466255037465089.019689447867677-4.456450601874167,2.022149850694404-4.460987447042498,4.488479262671717Z"/>
  <path class="cls-1" d="M8.145161290323813,2.53456221198212c-.807184962082829.001046593836691-1.49998727701859.57496820891447-1.651199218864349,1.367863901200508.523403397353832-.160114945355417,1.067391412048892-.242903942336852,1.614730560284443-.245744085532351.574593393483156.000318900781167,1.145389406361573.093146316466118,1.690473241191285.274919226422753-.138959410005555-.805528925312501-.836580551165753-1.394768211698647-1.654004582611378-1.39703904209091Z"/>
  <path class="cls-1" d="M4.21774193548481,11.511520737326464c.285420479312961-.000115574778647.525440937912208.214066964690574.557693792377904.497659650267451.067698997285333.548546797668678.22541683610325,1.082171607125929.466801719181603,1.579383940191292.474656523649173.840468358333965,1.813906570734616,2.411435672214793,2.902923843279495,2.411435672214793,1.089017272546698,0,2.428266784560037-1.570967313880828,2.902923843277676-2.412557175632173.241385418150458-.497212333063544.399103256962917-1.030837142522614.466802254250069-1.579383940192201.032779361794383-.283147508646834.272654816850263-.49671899997611.557693257309438-.496538146849161.309864545197343.000261113391389.561271794931599-.250721292010894.561532908321169-.560586907346988.000020332601707-.023604008458278-.001450035430025-.047186614180646-.004400402720421-.070605488966066-.067763205495794-.296409714605943-.336898342253335-.502621874829856-.640730526038169-.490927419354193-.973524893484864.020386106955812-1.912983050546245-.358519387135857-2.599952049520653-1.048620676664541-.059165726059291-.060004713348462-.140160103546805-.093414385747565-.224423749106791-.092575398459303-.07913447964529.000700939637682-.156128685594012.025778526536669-.220496346873915.071815813741523-1.004297213619793.70413078360798-2.577509139537142,1.063769533887353-4.678678430169384,1.069380261382321-.283233654663491-.007894399528595-.53335459990376.183498505622993-.599773178451869.458947449785228-.056395141758912.304689363400939.144887433072654.597407105880848.449576796476322.65380224764067.033809368509537.006257090151848.068122771477647.009394731389875.102506268407524.00937011824135Z"/>
  <path class="cls-1" d="M2.593473513004938,20.488479262673536h2.341302916202039l-1.103043556213379-1.931729707851446c-.632807232816049.472951260580885-1.07273112738585,1.159247143478751-1.23825935998866,1.931729707851446Z"/>
  <path class="cls-1" d="M12.458589707652209,18.55674955482209l-1.103043556213379,1.931729707851446h2.344108012413926c-.166248969768276-.772897777470462-.607207419136103-1.45925358803197-1.241064456200547-1.931729707851446Z"/>
  <polygon class="cls-1" points="8.145161290323813 19.598639070713034 7.255320028225469 20.488479262673536 9.035002552418518 20.488479262673536 8.145161290323813 19.598639070713034"/>
  <path class="cls-1" d="M7.023041474654747,16.855616145418935v.03422511667668l1.122119815669066,1.122118745531225,1.122119815667247-1.122119815667247v-.03422511667668c-.350653881301696.168123849525728-.733316625868611.25900629149055-1.122119815667247.266504740385244-.388803189802275-.007497378758671-.771465399298904-.098379820722585-1.122119815669066-.266503670249222Z"/>
  <path class="cls-1" d="M7.351822828917648,18.805299539169937l-1.114265011201496-1.112582756076335c-.491084194403811.022325194924633-.975002752473301.12643024778481-1.43182491047628.308021769545121l1.216378004319267,2.132027221714452,1.329711917358509-1.327466235183238Z"/>
  <path class="cls-1" d="M18.244239631336313,9.26728110599106h2.812032840220127c1.601975599191064-.672066273226847,3.392813229889725-.74279910847963,5.04280586945606-.199176010447445V3.095622119816653c0-.309864812733395-.251195362636281-.561059907834533-.561059907833624-.561059907834533h-8.976958525345253c-.309864545199162,0-.561059907833624.251195095101139-.561059907833624.561059907834533v7.854838709678006c0,.309864545197343.251195362634462.561059907831805.561059907833624.561059907831805h1.581628017162075c.173109617100636-.222285615682267.358746256146333-.434522646361984.556011002185187-.63568055025371.16831754429586-.171684194820045.343556733723744-.333830259911338.525713287739563-.486439265413537h-.980172583584135c-.309864545199162,0-.561059907833624-.251195362635372-.561059907833624-.561059907833624s.251195362634462-.561059907834533.561059907833624-.561059907834533ZM24.41589861751163,7.58410138248928h-3.366359447005379c-.309864545197343,0-.561059907833624-.251194827568725-.561059907833624-.561059907834533,0-.309865080266718.251195362636281-.561059907833624.561059907833624-.561059907833624h3.366359447005379c.309864545197343,0,.561059907833624.251194827566906.561059907833624.561059907833624,0,.309865080265809-.251195362636281.561059907834533-.561059907833624.561059907834533ZM18.244239631336313,3.656682027650277h6.171658986175316c.309864545197343,0,.561059907833624.251194827566906.561059907833624.561059907834533,0,.309865080265809-.251195362636281.561059907834533-.561059907833624.561059907834533h-6.171658986175316c-.309864545199162,0-.561059907833624-.251194827568725-.561059907833624-.561059907834533,0-.309865080267627.251195362634462-.561059907834533.561059907833624-.561059907834533ZM18.244239631336313,6.461981566821123h.561059907833624c.309864545197343,0,.561059907835443.251194827566906.561059907835443.561059907833624,0,.309865080265809-.2511953626381.561059907834533-.561059907835443.561059907834533h-.561059907833624c-.309864545199162,0-.561059907833624-.251194827568725-.561059907833624-.561059907834533,0-.309865080266718.251195362634462-.561059907833624.561059907833624-.561059907833624Z"/>
  <path class="cls-1" d="M9.828341013824684,26.09907834101341c-.309864545197343,0-.561059907833624.251195362637191-.561059907833624.561059907835443-.001474648577641.146392580549218.056892755394074.287040666499706.161585313382602.389375713011759.103835378376971.109793900346631.248356289579533.171906783284612.399474594451021.171684194820045h6.513344050554224c.382433735278028-.433092943532756.82336864163517-.810765639977035,1.310075441262597-1.122119815667247h-7.823419491816821Z"/>
  <path class="cls-1" d="M28.343317972348814,10.283921813085726V1.412442396313963c0-.61972962546497-.502390725270743-1.122119815668157-1.122119815667247-1.122119815668157H1.412442396314873C.792712770848084.290322580645807.290322580645807.792712770848993.290322580645807,1.412442396313963v19.076036866359573h1.165882527004214c.288945777625486-2.047306627722719,2.132027756784737-3.669332310901154,4.444716551337478-3.898244213948601v-.47465705871582c-.645343350925032-.568697474518558-1.197247167887326-1.23533708379-1.635489609934666-1.975491884117218-.258297860895254-.495875732140121-.439362875327788-1.028285936276916-.536934207661034-1.578822118346579-.709623260981971-.213478389423472-1.193114834446533-.869793318383017-1.186641844187761-1.610803158050658h-.007293785221918v-1.683179723503599c.001474916112784-2.007859243226449,1.075796266855832-3.861871332616829,2.817081745868563-4.861584079979366-.005049440718722-.062838970789926-.011782206698626-.125677406513205-.011782206698626-.187955090526884,0-1.549324063662425,1.255975207974188-2.805299539170846,2.805299539171756-2.805299539170846,1.549323796127283,0,2.805299539169937,1.255975475508421,2.805299539169937,2.805299539170846,0,.081353943468457-.007854804465751.160463274896756-.015148857220993.239572606327783.388886660473872.233044771554887.748467623363467.5118186309046,1.071063586641685.830368406762318,1.110585880718645,1.101371467388162,1.739606969367742,2.597869563211134,1.749384809749245,4.161943055516531v1.500834825403217h-.009538129728753c.008398433985349.740791531749892-.47472554747219,1.397620126398579-1.184397499680927,1.610241336205036-.097610392329443.55070526369218-.278671126210611,1.083295250818992-.5369347427295,1.579383940192201-.438242442049159.740154800327218-.990146259009634,1.40679440959866-1.635489074864381,1.975491884117218v.47465705871582c2.31268879455456.228911903047447,4.15577050617685,1.851498337934572,4.444717086404125,3.898244213948601h2.259388488559125c-.367574885143767-.642086389428187-.551753997804553-1.372786530702797-.532446588789753-2.112390210552803v-2.27678142275181c-.003160114110869-1.207007351008542.288023052127755-2.396583242899396.848323162799716-3.465667076373393h-.848323162799716c-.929594705730779,0-1.683179723500871-.753585017771911-1.683179723500871-1.683179723500871V3.095622119816653c0-.929594438198365.753585017770092-1.68317972350269,1.683179723500871-1.68317972350269h8.976958525345253c.929593635593847,0,1.68317972350269.753585285304325,1.68317972350269,1.68317972350269v6.452188940092128c.395770850820554.210525881858302.771386744239862.456929171688898,1.122119815667247.736110753176945Z"/>
</svg>